<svg width="64" height="64" viewBox="0 0 64 64" fill="none" xmlns="http://www.w3.org/2000/svg">
<g clip-path="url(#clip0_131_14)">
<path d="M63.0934 39.5205C58.9349 56.6934 41.6457 67.2457 24.4729 63.0934C7.30005 58.9349 -3.2523 41.6457 0.906174 24.4729C5.05852 7.30005 22.3477 -3.2523 39.5205 0.906174C56.6934 5.06464 67.2457 22.3538 63.0934 39.5205ZM30.3584 7.88187C31.1852 11.3605 33.1389 14.6248 35.7356 17.0807C36.5441 10.9686 40.1452 5.83019 46.6003 6.19153C37.7077 1.1879 26.9533 1.06541 17.9749 5.93431C22.2375 7.04282 26.2428 8.91689 29.9113 11.5626L29.5745 7.77163L29.9726 7.44091C30.0583 7.37354 30.3217 7.74101 30.3523 7.87574M47.4026 24.773C47.4333 24.577 47.9355 24.234 48.0947 24.332C48.2539 24.43 48.4132 24.7117 48.554 24.9751L48.4315 27.8842C52.3328 25.5814 56.871 25.2323 61.1703 26.9165C59.9148 19.9837 56.4974 13.9573 51.2426 9.48646C48.5234 7.17756 44.5793 6.98158 41.7437 9.10675C40.4453 10.0805 39.6185 11.4095 39.049 12.8733C37.7934 16.1069 37.6771 19.5611 39.0061 22.7703C40.5433 26.4878 41.56 30.2298 42.2643 34.2474L44.1077 31.865C45.6939 29.8134 46.9862 27.3881 47.4088 24.7791M37.3709 30.0277C36.5808 24.0197 33.0348 16.6091 28.2333 13.1489C26.2796 11.7464 24.2646 10.5705 22.066 9.60895C17.5952 7.66139 12.6099 8.99651 9.53546 12.6956C5.82407 17.1603 3.34369 22.3538 2.68225 28.3251C4.87479 23.9401 8.8679 21.1045 13.8899 20.443C12.0526 19.4264 10.0254 18.6057 9.08838 16.5295C11.7464 18.5873 14.4534 19.8061 17.6625 20.2287C25.5691 20.6696 32.3672 23.7808 37.3709 30.0338M46.3492 53.2698C47.4945 54.4886 50.0423 55.3582 51.4692 54.1579C58.4327 48.3213 62.0583 39.3307 61.5194 30.3829C61.4275 28.9192 60.4231 27.9883 59.1125 27.7004C50.8201 25.8999 44.1996 33.2246 43.4769 41.2476C43.6912 40.6597 46.4595 37.5423 46.7963 38.069L47.0352 38.4426C42.644 42.1724 42.5644 49.2461 46.3554 53.2637M30.4319 26.7634C28.6191 25.5998 26.8736 24.7546 24.8648 24.4606C21.1045 23.9217 17.7238 25.7284 16.0212 29.1213C14.0246 33.096 16.1621 36.146 14.4595 35.4233C13.1734 30.6708 14.9188 24.8281 19.8796 22.9356C16.7316 22.4579 13.5163 22.8009 10.4051 24.0319C5.29125 26.0652 2.00857 31.2403 2.86598 36.8503C3.91326 43.6668 7.45316 49.9626 12.7753 54.3967C15.2067 56.4239 18.324 57.4222 21.3494 57.857C26.9716 58.6654 32.0181 55.9217 34.7864 51.1263C36.2501 48.5908 36.887 45.9818 37.4015 43.0788C38.5345 36.6604 35.999 30.3523 30.4258 26.7634" fill="#4D6A39"/>
<path d="M42.9382 30.8119C41.7623 29.4952 41.0641 27.2965 41.6398 25.4653C42.2216 23.6035 43.8752 22.4705 45.5961 21.5334C47.3538 24.7855 46.5393 28.895 42.9443 30.818" fill="#4D6A39"/>
<path d="M41.1805 23.3095C40.3169 22.3357 39.68 21.0312 39.8147 19.7451C39.9801 18.1589 41.2539 16.9891 42.5584 16.2848C44.0773 18.7284 43.6425 21.6743 41.1805 23.3156" fill="#4D6A39"/>
<path d="M49.5219 26.1267C49.1483 25.0305 49.2524 23.5912 49.9384 22.5807C50.7284 21.4171 52.1493 21.0374 53.5763 20.9639C53.7784 23.4871 52.3146 25.8205 49.5219 26.1267Z" fill="#4D6A39"/>
<path d="M47.1946 22.5623C46.5883 21.4538 46.3617 20.1126 46.87 19.0163C47.4212 17.8282 48.6522 17.1177 49.8955 16.8176C50.6794 19.1939 49.7118 21.7171 47.1885 22.5623" fill="#4D6A39"/>
<path d="M45.1246 18.0363C44.5305 16.9891 44.2427 15.5866 44.8 14.4719C45.339 13.3879 46.4903 12.7755 47.6724 12.3223C48.5971 14.5271 47.6234 17.136 45.1246 18.0363Z" fill="#4D6A39"/>
<path d="M40.1455 16.5298C39.5147 15.409 39.4473 14.227 39.7168 13.0756C40.4088 11.9793 41.4316 11.2505 42.7545 10.8463C43.5751 13.1675 42.6136 15.6478 40.1455 16.5298Z" fill="#4D6A39"/>
<path d="M59.8844 23.9832C58.1144 25.5633 55.7198 25.7409 53.6559 24.6385C54.2744 23.4687 55.2605 22.4153 56.5956 22.3112C57.9123 22.2132 59.0699 23.0768 59.8905 23.9832" fill="#4D6A39"/>
<path d="M51.1571 20.0513C50.8141 19.0163 51.0836 17.6383 51.892 16.8238C52.7985 15.9113 54.1274 15.703 55.3585 15.752C55.3156 18.0548 53.6865 19.9962 51.1571 20.0452" fill="#4D6A39"/>
<path d="M45.2409 11.6977C44.8674 10.8954 45.2899 9.81746 46.0126 9.29689C46.5577 8.8988 47.4947 8.68445 48.2848 8.84368C48.2235 10.5034 46.9313 11.6793 45.2409 11.6977Z" fill="#4D6A39"/>
<path d="M52.4126 12.0528C52.0758 13.8228 50.9428 14.7231 49.4545 14.7231C49.3014 13.7983 49.4913 12.898 50.2078 12.3223C50.7162 11.912 51.8308 11.5139 52.4126 12.0528Z" fill="#4D6A39"/>
<path d="M57.7837 19.5614C57.3428 21.0802 56.173 22.005 54.5684 21.7662C54.599 20.9455 54.8869 20.0881 55.5728 19.6961C56.1608 19.3593 57.0427 19.3348 57.7837 19.5614Z" fill="#4D6A39"/>
<path d="M44.3345 11.3669C43.4281 10.8034 43.0178 9.60306 43.7282 8.7334C44.1079 8.91101 44.5979 9.38871 44.7449 9.73168C44.9225 10.1543 44.702 11.0423 44.3407 11.3669" fill="#4D6A39"/>
<path d="M34.3885 23.6218C30.6404 24.4364 27.6333 21.9131 26.7391 18.2569C28.5275 17.8588 30.475 17.7608 32.049 18.7897C33.5985 19.8002 34.2232 21.7355 34.3885 23.6157" fill="#4D6A39"/>
<path d="M25.9062 20.3269C22.9788 21.5456 19.9778 19.7879 18.9979 16.983C20.529 16.4808 22.0111 16.1378 23.3769 16.7502C24.7732 17.3749 25.5633 18.8387 25.9062 20.3269Z" fill="#4D6A39"/>
<path d="M29.5747 16.6094C26.5799 17.8588 23.6402 16.0643 22.6603 13.2961C24.1363 12.7816 25.6245 12.4264 27.0147 13.0389C28.3988 13.6513 29.1766 15.1089 29.5747 16.6094Z" fill="#4D6A39"/>
<path d="M22.1397 15.1947C19.7696 16.2297 17.1606 14.7843 16.4073 12.4387C17.626 12.0345 18.8264 11.7528 19.9043 12.1937C21.1047 12.6837 21.8029 13.8167 22.1336 15.1947" fill="#4D6A39"/>
<path d="M18.4528 18.9796C16.3889 20.1922 14.1903 18.9428 12.4326 17.4974C13.2287 16.8789 14.08 16.4318 15.0844 16.3338C16.7196 16.1685 18.2752 17.3382 18.459 18.9796" fill="#4D6A39"/>
<path d="M10.9565 20.2779C9.71328 21.9498 7.52687 22.1826 5.76917 21.0985C6.29586 20.2289 7.06141 19.3286 8.04744 19.0897C9.10696 18.8325 10.1726 19.4878 10.9565 20.2779Z" fill="#4D6A39"/>
<path d="M14.9374 14.7966C13.1859 15.8377 11.2383 15.0477 10.338 13.3818C11.1893 12.9102 12.108 12.6163 12.9103 12.7878C13.7983 12.9776 14.4659 13.7554 14.9374 14.7966Z" fill="#4D6A39"/>
<path d="M23.5483 11.4221C22.0172 12.4448 20.2718 12.1325 19.2 10.681C19.8982 10.1114 20.7985 9.71947 21.5395 9.79908C22.4092 9.89095 23.0951 10.5646 23.5483 11.4221Z" fill="#4D6A39"/>
<path d="M17.3566 10.6687C16.3277 11.7588 14.8027 11.8997 13.6023 10.7544C14.031 10.2461 14.7353 9.7684 15.2988 9.67653C16.0827 9.55404 16.8299 10.0379 17.3566 10.6687Z" fill="#4D6A39"/>
<path d="M35.0561 15.1824C33.9108 14.3862 32.9187 13.1552 32.9126 11.7221C32.9003 10.3686 33.6904 9.1621 34.7131 8.12708C36.6913 9.99502 37.0955 13.0266 35.0561 15.1824Z" fill="#4D6A39"/>
<path d="M32.5512 10.0562C31.6203 9.65202 31.0078 8.56187 31.0201 7.52072C31.0323 6.4857 31.7489 5.57929 32.5696 4.84436C33.9782 6.29584 34.021 8.43938 32.5512 10.0562Z" fill="#4D6A39"/>
<path d="M36.9669 10.4666C36.4708 9.75009 36.0176 8.68444 36.232 7.77803C36.4831 6.72463 37.4324 5.9897 38.351 5.5365C39.2881 7.2942 38.8532 9.3765 36.9669 10.4728" fill="#4D6A39"/>
<path d="M29.1215 9.71334C28.0191 9.76233 27.0392 9.38874 26.4635 8.48846C26.041 7.83314 25.943 6.74913 26.1573 5.82434C28.1049 6.11831 29.3298 7.71678 29.1215 9.71334Z" fill="#4D6A39"/>
<path d="M35.6502 7.43507C34.8969 7.28196 34.3824 6.22244 34.3212 5.59775C34.2293 4.64234 34.7315 3.81555 35.5277 3.17249C36.6546 4.29938 36.9057 6.17344 35.6502 7.43507Z" fill="#4D6A39"/>
<path d="M25.2325 7.18395C23.138 7.66778 22.152 7.17171 21.4048 5.1629C23.0706 4.56271 24.8222 5.43237 25.2325 7.18395Z" fill="#4D6A39"/>
<path d="M30.2055 6.66334C29.5196 6.9818 28.6193 6.23463 28.3253 5.7508C27.866 4.97912 27.9334 3.9441 28.4417 3.15405C29.783 3.68688 30.6955 5.11999 30.2055 6.66334Z" fill="#4D6A39"/>
<path d="M41.8052 4.7035C41.9032 6.10599 40.7212 7.42886 39.4657 7.31862C39.1472 6.72455 39.4412 5.62829 39.9005 5.10159C40.2557 4.69125 41.2846 4.25642 41.8052 4.7035Z" fill="#4D6A39"/>
</g>
<defs>
<clipPath id="clip0_131_14">
<rect width="64" height="64" fill="white"/>
</clipPath>
</defs>
</svg>
