<?xml version="1.0" encoding="UTF-8"?>
<svg id="Layer_2" data-name="Layer 2" xmlns="http://www.w3.org/2000/svg" viewBox="0 0 243.09 46">
  <defs>
    <style>
      .cls-1 {
        fill: #f3f7ff;
      }
    </style>
  </defs>
  <g id="Layer_1-2" data-name="Layer 1">
    <g>
      <path class="cls-1" d="M52.97,26.69l-1.12.03c0-.11.01-.19.04-.24.03-.05.08-.07.16-.09.35-.06.61-.13.77-.23.16-.1.26-.24.31-.43.04-.19.08-.5.1-.93.08-1.67.12-3.21.12-4.63v-.56c-.01-1.12-.05-2.2-.12-3.22-.03-.43-.08-.73-.14-.89-.06-.16-.17-.28-.34-.34-.17-.06-.48-.11-.94-.14,0-.14.02-.23.05-.28.03-.05.09-.08.17-.08.18,0,.36,0,.52,0,.16,0,.34.01.54.02.25.01.45.02.6.02s.34,0,.58.02c.4-.01.8-.02,1.21-.03.27-.01.53-.02.76-.03.23-.01.47-.02.71-.02,1.42,0,2.53.28,3.33.85.8.57,1.2,1.37,1.2,2.42,0,.7-.19,1.33-.58,1.87s-.92.97-1.59,1.27c-.68.3-1.44.45-2.29.45-.36,0-.62-.03-.77-.1-.15-.07-.23-.23-.23-.48.25.03.48.05.68.05.85,0,1.5-.26,1.95-.79.45-.53.67-1.26.67-2.19s-.24-1.6-.71-2.11c-.47-.51-1.14-.77-2.02-.77-.39,0-.67.03-.84.09-.18.06-.3.18-.37.35-.07.17-.1.44-.1.8v3.8c0,1.66.04,3.21.1,4.65.01.48.05.81.12,1,.07.19.2.32.41.39.21.07.57.13,1.09.16,0,.14-.02.23-.06.28-.04.05-.12.08-.25.08-.19,0-.38,0-.54,0-.17,0-.36-.01-.56-.03-.56-.02-.98-.03-1.26-.03-.41.01-.86.02-1.34.03"/>
      <path class="cls-1" d="M62.19,26.43c.03-.05.08-.08.16-.09.25-.03.43-.08.55-.14.12-.06.21-.18.26-.36.06-.18.09-.44.09-.79v-3.54c0-.28-.03-.51-.09-.66-.06-.16-.15-.29-.29-.39-.14-.1-.34-.19-.6-.27-.01-.08,0-.14.02-.19.02-.04.07-.09.15-.14l2.01-.9c.14-.06.24-.09.32-.1.08-.01.15-.02.22-.02.01.31.02.55.03.72,0,.18.01.41.03.69v.7l.05.14v4.17c.01.32.05.55.1.69.06.14.18.24.37.3.19.06.5.1.95.14,0,.11-.01.2-.04.25-.03.05-.09.08-.2.08l-.63-.02c-.5,0-1,0-1.5-.02l-1.18.02c-.2.01-.48.02-.83.02,0-.12.01-.21.04-.26M66.08,19.38c.4-.39.75-.59,1.07-.59.24,0,.44.07.61.2.17.14.26.29.26.46,0,.15-.05.37-.15.66-.08.23-.19.49-.32.8-.34-.11-.61-.19-.8-.24-.19-.05-.35-.07-.46-.07-.14,0-.31.06-.53.19-.22.12-.49.35-.82.68l-.19-.15c.49-.91.93-1.56,1.33-1.95"/>
      <path class="cls-1" d="M70.47,26.35c-.58-.33-1.05-.79-1.39-1.38-.34-.59-.51-1.26-.51-2.03s.18-1.49.55-2.11c.37-.62.87-1.12,1.49-1.47.62-.36,1.31-.54,2.04-.54s1.35.16,1.93.49c.58.33,1.04.78,1.37,1.35.33.57.49,1.22.49,1.95,0,.77-.18,1.48-.53,2.13-.35.65-.84,1.16-1.46,1.53-.62.38-1.3.56-2.05.56s-1.37-.16-1.95-.49M74.07,25.49c.31-.51.46-1.21.46-2.11,0-.7-.09-1.36-.26-1.96-.17-.6-.42-1.08-.76-1.45-.33-.36-.74-.54-1.22-.54-.58,0-1.03.24-1.35.72-.32.48-.48,1.16-.48,2.04,0,.69.09,1.35.27,1.97.18.62.45,1.13.79,1.51.35.39.76.58,1.24.58.56,0,.99-.26,1.29-.77"/>
      <path class="cls-1" d="M77.22,19.7c0-.09.16-.23.47-.42.31-.19.54-.28.67-.28h4.07l.05.1-.14.34c-.06.12-.12.21-.18.26-.06.04-.14.07-.23.07h-4.65s-.07-.02-.07-.07M77.39,26.43c.03-.05.08-.08.16-.09.26-.03.45-.08.58-.14s.21-.15.26-.27c.05-.12.08-.32.08-.58v-6.54c0-.86.22-1.71.65-2.55.43-.84,1-1.53,1.71-2.07.71-.54,1.45-.81,2.22-.81.37,0,.68.09.92.26.24.17.36.4.36.68,0,.16-.03.34-.09.54-.06.2-.14.38-.23.54-.24-.26-.52-.46-.86-.61-.33-.15-.7-.22-1.1-.22-.56,0-.98.2-1.27.6-.29.4-.43,1-.43,1.81v8.19c0,.34.04.59.11.75.07.16.21.27.41.33.2.06.52.11.96.14,0,.12-.01.21-.03.26-.02.04-.08.07-.17.07l-.63-.02c-.51,0-1.03,0-1.55-.02l-1.12.02c-.24.01-.56.02-.97.02,0-.12.01-.21.04-.26"/>
      <path class="cls-1" d="M83.44,26.52c-.19-.19-.28-.44-.28-.76s.11-.58.33-.8c.22-.21.49-.32.81-.32s.57.1.76.29c.19.19.28.45.28.77s-.12.58-.35.79c-.23.21-.5.32-.81.32s-.55-.09-.74-.28"/>
      <path class="cls-1" d="M90.56,26.49s.08-.07.17-.08c.34-.06.59-.13.74-.22.15-.09.26-.23.32-.41.06-.18.09-.48.1-.89v-.07c.08-1.86.12-3.4.12-4.63,0-1.38-.04-2.65-.12-3.78-.03-.42-.08-.71-.14-.88-.06-.16-.17-.28-.34-.35-.17-.07-.48-.12-.92-.15,0-.14.02-.23.05-.28.03-.05.1-.08.19-.08.25.01.49.02.73.03.22.01.44.02.68.03.24,0,.48,0,.73,0,.2,0,.44,0,.7-.02.26-.01.54-.02.83-.03.34-.01.66-.02.97-.03.31-.01.59-.02.85-.02,1.48,0,2.74.27,3.81.8,1.06.53,1.87,1.24,2.42,2.1.55.87.83,1.8.83,2.8,0,1.16-.29,2.22-.87,3.18-.58.96-1.44,1.73-2.59,2.31-1.15.57-2.53.86-4.14.86-.52,0-.96,0-1.31-.02-.51,0-1,0-1.46-.02-.44.01-.93.02-1.45.03l-.94.03c0-.11.01-.19.04-.24M98.88,25.33c.75-.49,1.31-1.14,1.66-1.96.35-.82.53-1.74.53-2.76s-.18-1.92-.54-2.73c-.36-.81-.93-1.46-1.7-1.95-.77-.49-1.74-.73-2.91-.73-.56,0-.96.04-1.23.11-.26.07-.44.22-.53.43-.09.21-.14.54-.14,1v7.22c0,.64.04,1.09.12,1.38.08.28.24.47.47.57.23.1.62.15,1.15.16h.27c1.15,0,2.1-.24,2.85-.73"/>
      <path class="cls-1" d="M104.36,26.43c.03-.05.08-.08.16-.09.25-.03.43-.08.55-.14.12-.06.21-.18.26-.36.06-.18.09-.44.09-.79v-3.54c0-.28-.03-.51-.09-.66-.06-.16-.15-.29-.29-.39-.14-.1-.34-.19-.6-.27-.01-.08,0-.14.02-.19.02-.04.07-.09.15-.14l2.01-.9c.14-.06.24-.09.32-.1.08-.01.15-.02.22-.02.01.31.02.55.03.72,0,.18.01.41.03.69v.7l.05.14v4.17c.01.32.05.55.1.69.06.14.18.24.37.3.19.06.5.1.95.14,0,.11-.01.2-.04.25-.03.05-.09.08-.2.08l-.63-.02c-.5,0-1,0-1.5-.02l-1.18.02c-.2.01-.48.02-.83.02,0-.12.01-.21.04-.26M108.25,19.38c.4-.39.75-.59,1.07-.59.24,0,.44.07.61.2.17.14.26.29.26.46,0,.15-.05.37-.15.66-.08.23-.19.49-.32.8-.34-.11-.61-.19-.8-.24-.19-.05-.35-.07-.46-.07-.14,0-.31.06-.53.19-.22.12-.49.35-.82.68l-.19-.15c.49-.91.93-1.56,1.33-1.95"/>
      <path class="cls-1" d="M116.16,26.69c-.18,0-.4,0-.67.02-.37.01-.76.02-1.16.02,0-.11.01-.19.03-.24.02-.05.08-.07.17-.09.36-.06.62-.13.77-.21s.25-.22.3-.4c.04-.18.08-.47.1-.87.08-1.97.12-3.56.12-4.75,0-1.49-.04-2.74-.12-3.76-.03-.43-.08-.73-.14-.89-.06-.16-.17-.28-.34-.34-.17-.06-.48-.11-.94-.14,0-.14.02-.23.05-.28.03-.05.09-.08.17-.08.25,0,.61.01,1.09.03.24.01.43.02.59.02s.35,0,.59.02c.33,0,.74-.01,1.23-.03.21-.02.41-.04.61-.04.2,0,.4,0,.6,0,.87,0,1.63.11,2.28.34.65.23,1.15.56,1.51,1,.36.44.54.96.54,1.57,0,.53-.16,1.02-.48,1.47-.32.45-.76.82-1.34,1.12-.57.29-1.24.49-2,.58l-.03-.12c.64,0,1.14.07,1.51.21.38.14.67.35.88.62.21.27.41.64.61,1.09.32.77.6,1.41.86,1.92.26.51.49.91.69,1.19.16.25.33.43.52.55.19.12.41.18.67.19,0,.11-.01.2-.04.25-.03.05-.1.08-.21.08h-1.89c-.38,0-.66-.07-.85-.2-.19-.13-.39-.41-.6-.85-.2-.44-.54-1.26-1.02-2.46-.31-.73-.54-1.24-.72-1.54-.17-.3-.34-.5-.51-.6-.17-.1-.43-.18-.77-.22-.18-.02-.3-.07-.35-.13-.05-.06-.08-.18-.08-.37.08.01.17.02.28.03.11.01.21.02.3.02.76,0,1.35-.24,1.75-.72.41-.48.61-1.15.61-2,0-.78-.21-1.4-.62-1.86s-1-.68-1.76-.68c-.34,0-.6.03-.77.1-.17.07-.29.18-.36.35-.07.16-.1.42-.1.76v4.14c.01.99.02,1.99.03,3,.02.47.04.94.05,1.43.02.4.07.69.15.89.07.19.21.33.4.42.19.08.51.15.95.2.01.11,0,.19-.03.24-.03.04-.09.07-.2.07-.31,0-.61,0-.92-.02-.48-.01-.93-.02-1.35-.03-.27.01-.5.02-.67.02"/>
      <path class="cls-1" d="M126,26.47s.08-.07.15-.08c.27-.06.46-.12.58-.18.11-.06.19-.16.24-.31.04-.14.07-.37.07-.69v-3.71c0-.29-.03-.52-.09-.67-.06-.15-.15-.28-.29-.38-.14-.1-.35-.2-.63-.29,0-.08.01-.14.04-.19.03-.04.08-.09.15-.12l2.09-.89c.12-.06.23-.09.32-.11.09-.02.19-.03.31-.03-.02.5-.03.94-.03,1.33v5.06c0,.34.02.58.07.73.04.15.14.25.27.31.14.06.37.1.7.12.01.12,0,.21-.03.25-.03.05-.1.07-.21.07l-.56-.02c-.4,0-.8,0-1.21-.02l-1.12.02c-.21.01-.49.02-.85.02,0-.1.01-.18.04-.22M127.03,16.52c-.18-.2-.27-.44-.27-.72,0-.32.12-.59.37-.81.24-.22.54-.34.88-.37.27.02.5.12.69.31.19.18.28.42.28.71,0,.32-.12.59-.37.82-.24.23-.54.35-.89.38-.27-.01-.5-.12-.68-.32"/>
      <path class="cls-1" d="M130.81,26.43c.03-.05.08-.08.16-.09.23-.03.39-.08.5-.13.11-.05.19-.14.24-.26.05-.12.08-.3.08-.54v-3.93c0-.28-.03-.5-.09-.66-.06-.16-.15-.29-.29-.38-.14-.1-.33-.2-.6-.3-.01-.08,0-.14.03-.18.03-.04.09-.08.2-.13l1.94-.87c.12-.06.23-.09.31-.11.08-.02.16-.02.26-.02.01.51.03.95.05,1.31l.05.15v5.21c0,.22.02.38.07.49.05.11.13.2.26.25.13.05.33.09.6.13.01.11,0,.2-.03.25-.03.05-.1.08-.21.08l-.48-.02c-.39,0-.78,0-1.17-.02-.39.01-.77.02-1.16.02-.19.01-.45.02-.77.02,0-.12.01-.21.04-.26M135.57,26.45c.03-.05.08-.08.16-.09.23-.03.39-.09.5-.16.11-.07.18-.19.23-.36.04-.16.07-.41.07-.74v-3.73c0-.5-.11-.85-.34-1.06-.23-.2-.57-.31-1.04-.31-.26,0-.52.03-.79.09-.27.06-.54.17-.83.32l-.12-.25c.51-.42,1.01-.75,1.5-.98.49-.23.98-.35,1.48-.35.59,0,1.07.17,1.44.51.37.34.55.85.55,1.53v4.36c0,.32.03.55.08.69.05.14.14.24.27.31.13.06.33.1.59.13,0,.12-.01.21-.03.26-.02.05-.08.08-.19.08l-.43-.02c-.42,0-.83,0-1.24-.02l-1.09.02c-.2.01-.48.02-.82.02,0-.11.01-.2.04-.25"/>
      <path class="cls-1" d="M141.27,26.62c-.29-.16-.53-.4-.71-.7s-.27-.64-.27-1.03.1-.7.31-.94c.21-.24.57-.48,1.09-.73l2.25-1.18c.17-.09.29-.18.38-.26.08-.08.13-.17.15-.27.02-.1.03-.24.03-.43,0-.45-.1-.77-.32-.95-.21-.18-.58-.27-1.1-.27-.4,0-.8.06-1.21.18-.41.12-.81.28-1.21.49-.09-.18-.11-.32-.07-.42.04-.1.18-.21.41-.33.48-.28.98-.51,1.52-.69.54-.18,1.08-.26,1.61-.26.7,0,1.24.16,1.63.48.38.32.57.79.57,1.43v4.41c0,.24.02.4.07.48.04.08.13.12.26.12.18,0,.45-.08.8-.24.02.06.03.12.03.19,0,.05-.02.09-.07.15-.05.05-.12.1-.22.16-.33.24-.69.44-1.09.61-.4.17-.7.26-.92.26-.2,0-.36-.14-.48-.43-.11-.29-.19-.68-.22-1.17h-.03c-.53.6-.97,1.02-1.3,1.25-.34.23-.66.35-.96.35s-.62-.08-.92-.25M143.72,25.36c.21-.16.4-.38.54-.64.15-.26.22-.52.22-.78v-1.62l-1.41.71c-.38.2-.64.4-.78.58-.15.18-.22.42-.22.73,0,.36.1.66.3.9.2.24.43.36.71.36.22,0,.43-.08.65-.25"/>
      <path class="cls-1" d="M148.16,26.43c.03-.05.08-.08.16-.09.25-.03.43-.08.55-.14.12-.06.21-.18.26-.36.06-.18.09-.44.09-.79v-3.54c0-.28-.03-.51-.09-.66-.06-.16-.15-.29-.29-.39-.14-.1-.34-.19-.6-.27-.01-.08,0-.14.02-.19.02-.04.07-.09.15-.14l2.01-.9c.14-.06.24-.09.32-.1.08-.01.15-.02.22-.02.01.31.02.55.03.72,0,.18.01.41.03.69v.7l.05.14v4.17c.01.32.05.55.1.69.06.14.18.24.37.3.19.06.5.1.95.14,0,.11-.01.2-.04.25-.03.05-.09.08-.2.08l-.63-.02c-.5,0-1,0-1.5-.02l-1.18.02c-.2.01-.48.02-.83.02,0-.12.01-.21.04-.26M152.05,19.38c.4-.39.75-.59,1.07-.59.24,0,.44.07.61.2.17.14.26.29.26.46,0,.15-.05.37-.15.66-.08.23-.19.49-.32.8-.34-.11-.61-.19-.8-.24-.19-.05-.35-.07-.46-.07-.14,0-.31.06-.53.19-.22.12-.49.35-.82.68l-.19-.15c.49-.91.93-1.56,1.33-1.95"/>
      <path class="cls-1" d="M156.1,26.41c-.47-.29-.85-.71-1.14-1.26-.3-.55-.44-1.21-.44-1.97,0-.81.18-1.54.54-2.21.36-.67.85-1.19,1.49-1.57.63-.38,1.34-.57,2.11-.57.27,0,.55.03.83.09s.52.12.71.2v-3.06c0-.27-.03-.49-.08-.65-.06-.16-.15-.29-.29-.39-.14-.1-.34-.2-.61-.29,0-.08.01-.15.04-.2.03-.05.09-.09.18-.13l2.21-.87c.12-.05.23-.08.32-.09s.17-.03.24-.03c-.06.25-.09.51-.11.77s-.03.57-.03.92v9.74c0,.27.03.48.08.62.05.14.15.24.31.31.15.06.38.1.69.13,0,.11-.01.19-.03.23-.02.04-.08.07-.19.09l-2.4.58-.14-.07-.17-1.09c-.51.39-.99.68-1.44.89-.45.21-.86.32-1.22.32-.51,0-1-.15-1.46-.44M159.73,25.25c.32-.38.48-.94.48-1.69v-2.2c0-.62-.17-1.11-.5-1.46-.33-.35-.76-.52-1.27-.52-.61,0-1.1.28-1.45.83-.35.56-.53,1.33-.53,2.32,0,.68.09,1.27.26,1.76.17.49.41.87.72,1.12.31.26.68.38,1.1.38.46,0,.86-.19,1.18-.56"/>
      <path class="cls-1" d="M165.85,26.35c-.58-.33-1.05-.79-1.39-1.38-.34-.59-.51-1.26-.51-2.03s.18-1.49.55-2.11c.37-.62.86-1.12,1.49-1.47.62-.36,1.31-.54,2.04-.54s1.35.16,1.93.49c.58.33,1.04.78,1.37,1.35.33.57.49,1.22.49,1.95,0,.77-.18,1.48-.53,2.13s-.84,1.16-1.46,1.53c-.62.38-1.3.56-2.05.56s-1.37-.16-1.95-.49M169.45,25.49c.31-.51.46-1.21.46-2.11,0-.7-.09-1.36-.26-1.96-.17-.6-.42-1.08-.76-1.45-.33-.36-.74-.54-1.22-.54-.58,0-1.03.24-1.35.72-.32.48-.48,1.16-.48,2.04,0,.69.09,1.35.27,1.97.18.62.45,1.13.79,1.51.35.39.76.58,1.24.58.56,0,.99-.26,1.29-.77"/>
      <path class="cls-1" d="M179.92,18.56c-.16-.42-.32-.83-.48-1.23s-.31-.8-.46-1.18l.22-.02-.68,6.33c-.11,1.19-.17,2.03-.17,2.52,0,.32.03.57.09.75.06.18.19.33.39.44.2.11.5.19.89.24,0,.11-.02.19-.04.24-.03.04-.1.07-.21.07-.25,0-.5,0-.75-.02-.32-.01-.64-.02-.97-.03-.33.01-.68.02-1.05.02l-.77.02c0-.14.01-.22.04-.26.03-.04.1-.07.21-.09.29-.05.53-.12.71-.23.18-.11.32-.29.43-.55.11-.26.2-.63.26-1.11l.75-7.08c.04-.43.07-.77.07-1s-.04-.44-.1-.6-.18-.3-.35-.42c-.16-.12-.4-.23-.72-.33,0-.1.01-.18.04-.22.03-.05.09-.07.2-.07l.39.02c.16.01.31.02.44.03.14,0,.29,0,.46,0,.27-.01.55-.02.82-.02.14-.01.31-.02.53-.02.18,0,.32.03.4.09.09.06.16.18.21.35.36,1.07.79,2.22,1.28,3.47.49,1.25,1,2.56,1.53,3.93l.54,1.36-.29.07,2.6-6.68c.24-.65.47-1.35.68-2.11.02-.11.05-.22.09-.31.06-.16.15-.24.29-.24.1,0,.19,0,.27.02.24.02.49.03.75.03.61,0,1.13-.01,1.57-.03.07,0,.12,0,.14,0,.03,0,.08,0,.16,0,0,.12-.01.21-.04.26-.03.05-.09.08-.18.12-.27.08-.47.18-.59.32-.12.13-.19.3-.21.5-.02.2-.01.49.03.85l.92,7.97c.03.41.11.73.23.96.12.23.28.4.47.51.19.11.44.18.75.21,0,.12-.01.21-.04.26-.03.04-.09.07-.2.07l-.58-.02c-.59-.02-1.11-.03-1.55-.03-.24,0-.46,0-.66,0-.2,0-.43.01-.68.03-.33.01-.66.02-1.01.02,0-.11.01-.2.03-.25.02-.05.09-.08.2-.09.36-.06.62-.16.77-.32.15-.15.23-.4.23-.74-.01-.24-.02-.5-.03-.8l-.07-.6-.8-7.56.08-.41.19.15c-.11.35-.41,1.13-.88,2.32-.47,1.2-.96,2.43-1.46,3.69-.92,2.3-1.5,3.77-1.74,4.39-.1.27-.19.41-.27.4-.08,0-.17-.15-.27-.42-.75-1.99-1.78-4.63-3.08-7.93"/>
      <path class="cls-1" d="M194.02,26.37c-.53-.32-.96-.77-1.29-1.34-.32-.58-.49-1.24-.49-1.99s.17-1.5.51-2.14c.34-.64.8-1.15,1.39-1.51.58-.37,1.22-.55,1.9-.55.59,0,1.1.12,1.54.36.44.24.77.55,1.01.94.24.39.36.82.36,1.29,0,.3-.07.49-.22.59-.15.1-.4.15-.77.16l-4.77.07v-.63l3.59-.05c.14,0,.23-.02.27-.07s.07-.13.07-.26c0-.56-.12-.99-.35-1.3-.23-.31-.55-.47-.96-.47-.51,0-.93.25-1.26.75-.33.5-.49,1.2-.49,2.11,0,.65.11,1.21.32,1.69.22.48.52.85.93,1.11.4.26.88.39,1.42.39.41,0,.78-.06,1.11-.19.33-.12.64-.32.94-.6.08.06.13.13.15.21.02.08,0,.16-.07.25-.39.49-.86.89-1.42,1.19-.56.31-1.13.46-1.71.46-.61,0-1.19-.16-1.72-.48"/>
      <path class="cls-1" d="M201.37,26.74c-.38-.06-.64-.14-.78-.23-.12-.09-.22-.3-.3-.62-.07-.32-.11-.74-.11-1.25,0-.23.02-.37.06-.44.04-.07.12-.1.23-.1.23.71.54,1.25.94,1.6s.87.53,1.43.53c.43,0,.77-.11,1.02-.33.25-.22.37-.51.37-.88s-.13-.67-.39-.88c-.26-.21-.68-.42-1.26-.62-.47-.18-.85-.36-1.16-.54-.31-.18-.56-.41-.76-.7-.2-.29-.3-.64-.3-1.06s.12-.83.37-1.18c.24-.36.59-.64,1.05-.85.46-.21.99-.32,1.59-.32.36,0,.72.03,1.06.1.35.07.59.17.72.31.1.09.18.25.22.48.05.23.07.62.07,1.17,0,.11-.02.19-.05.22-.03.03-.1.05-.2.05-.23-.59-.52-1.03-.89-1.33-.36-.29-.78-.44-1.24-.44-.38,0-.68.09-.92.28-.24.19-.36.43-.36.74,0,.35.13.63.4.82.27.2.68.41,1.25.62.04.02.08.04.1.05.5.19.91.38,1.23.57.32.19.57.42.75.69.18.27.27.61.27,1,0,.49-.14.93-.42,1.34-.28.4-.67.72-1.17.94-.5.23-1.09.34-1.75.34-.35,0-.71-.03-1.09-.09"/>
      <path class="cls-1" d="M211.39,30.34s.1-.07.21-.08c.31-.03.53-.08.67-.14.14-.06.24-.15.3-.27.06-.12.08-.31.08-.59v-7.83c0-.66-.15-1.15-.45-1.46-.3-.32-.71-.48-1.23-.48-.65,0-1.15.27-1.51.81s-.54,1.31-.54,2.31.19,1.78.57,2.33c.38.56.89.83,1.54.83.43,0,.81-.15,1.13-.44.32-.29.48-.75.48-1.38l.24,1.57c-.48.38-.97.68-1.49.92-.52.24-.95.36-1.29.36-.53,0-1.04-.14-1.53-.42-.48-.28-.87-.69-1.17-1.24-.3-.55-.45-1.21-.45-1.98s.18-1.54.53-2.19c.35-.65.82-1.17,1.41-1.54.59-.38,1.23-.56,1.91-.56.29,0,.57.03.82.09.26.06.55.15.88.26.12.04.25.09.37.13.12.04.22.06.3.06.09,0,.19-.02.29-.07.1-.05.24-.12.42-.24.01-.01.02-.02.03-.02.01,0,.03-.01.05-.03.12-.08.22-.13.29-.16.07-.03.15-.04.24-.04v10.47c0,.25.03.44.09.57.06.13.15.23.29.29.14.06.34.1.61.13,0,.12-.02.21-.04.25-.03.05-.1.07-.23.07l-.37-.02c-.38,0-.81,0-1.31-.02-.53.01-1.02.02-1.45.02l-.75.02c0-.14.02-.23.04-.27"/>
      <path class="cls-1" d="M217.39,26.29c-.36-.37-.54-.92-.54-1.64v-3.17c0-.28-.03-.51-.08-.66s-.15-.29-.27-.38c-.12-.1-.32-.2-.6-.3,0-.07.01-.12.04-.17.03-.04.08-.08.14-.12l2.01-.88c.14-.06.24-.09.32-.11.08-.02.18-.02.31-.02v5.38c0,.53.1.9.29,1.11.19.21.49.32.88.32.58,0,1.18-.21,1.79-.63l.14.24c-.48.49-.97.88-1.48,1.17-.51.29-1.03.43-1.55.43-.58,0-1.05-.18-1.4-.55M221.68,26.73l-.22-1.21-.02-.19v-3.85c0-.28-.03-.51-.09-.66-.06-.16-.15-.29-.28-.38-.13-.1-.33-.2-.59-.3-.01-.07,0-.12.03-.17.03-.04.09-.08.18-.12l1.99-.88c.14-.06.24-.09.32-.11.08-.02.18-.02.29-.02v5.86c0,.28.02.5.08.65.05.15.15.25.29.32.14.07.37.12.67.15,0,.11-.01.19-.04.24-.03.05-.08.07-.16.09l-2.35.68-.1-.09Z"/>
      <path class="cls-1" d="M225.15,26.47s.08-.07.15-.08c.27-.06.46-.12.58-.18.11-.06.19-.16.24-.31.05-.14.07-.37.07-.69v-3.71c0-.29-.03-.52-.09-.67-.06-.15-.15-.28-.29-.38-.14-.1-.35-.2-.63-.29,0-.08.01-.14.04-.19.03-.04.08-.09.14-.12l2.09-.89c.12-.06.23-.09.32-.11.09-.02.19-.03.31-.03-.02.5-.03.94-.03,1.33v5.06c0,.34.02.58.07.73.05.15.14.25.27.31.14.06.37.1.7.12.01.12,0,.21-.03.25-.03.05-.1.07-.21.07l-.56-.02c-.4,0-.8,0-1.21-.02l-1.12.02c-.21.01-.49.02-.85.02,0-.1.01-.18.04-.22M226.18,16.52c-.18-.2-.27-.44-.27-.72,0-.32.12-.59.37-.81.24-.22.54-.34.88-.37.27.02.5.12.69.31.19.18.28.42.28.71,0,.32-.12.59-.37.82-.24.23-.54.35-.89.38-.27-.01-.5-.12-.68-.32"/>
      <path class="cls-1" d="M231.13,26.57c-.25-.21-.38-.56-.38-1.06v-6.5h4.09l.05.1-.15.34c-.05.12-.1.21-.17.26-.07.04-.15.07-.24.07h-4.58s-.08,0-.11-.02c-.03-.01-.04-.03-.04-.05,0-.04.02-.09.05-.13.03-.04.09-.09.17-.16l.08-.09,1.84-1.63c.2-.18.36-.3.48-.36.11-.06.25-.08.41-.08v7.78c0,.31.06.52.18.65.12.12.32.19.6.19.25,0,.48-.03.68-.09.21-.06.4-.13.58-.22.06-.02.11-.05.15-.07.02.02.04.04.05.07.01.02.02.06.02.1s-.01.08-.03.11c-.02.03-.05.06-.09.09l-.08.07c-.31.25-.69.47-1.16.67-.47.19-.93.29-1.38.29s-.77-.1-1.02-.32"/>
      <path class="cls-1" d="M236.87,26.62c-.29-.16-.53-.4-.71-.7s-.27-.64-.27-1.03.1-.7.31-.94c.21-.24.57-.48,1.09-.73l2.25-1.18c.17-.09.3-.18.38-.26.08-.08.13-.17.15-.27.02-.1.03-.24.03-.43,0-.45-.11-.77-.32-.95-.21-.18-.58-.27-1.1-.27-.4,0-.8.06-1.21.18-.41.12-.81.28-1.21.49-.09-.18-.11-.32-.07-.42.05-.1.18-.21.41-.33.48-.28.98-.51,1.52-.69.54-.18,1.08-.26,1.61-.26.7,0,1.24.16,1.63.48.38.32.57.79.57,1.43v4.41c0,.24.02.4.07.48.05.08.13.12.26.12.18,0,.45-.08.8-.24.02.06.03.12.03.19,0,.05-.02.09-.07.15-.05.05-.12.1-.22.16-.33.24-.69.44-1.09.61-.4.17-.7.26-.92.26-.2,0-.36-.14-.48-.43-.11-.29-.19-.68-.22-1.17h-.03c-.53.6-.97,1.02-1.3,1.25-.34.23-.66.35-.96.35s-.62-.08-.92-.25M239.32,25.36c.21-.16.4-.38.54-.64.15-.26.22-.52.22-.78v-1.62l-1.41.71c-.38.2-.64.4-.78.58-.15.18-.22.42-.22.73,0,.36.1.66.3.9.2.24.43.36.71.36.22,0,.43-.08.65-.25"/>
      <path class="cls-1" d="M96.28,36.45c-.43,1.11-1.31,1.61-2.17,1.61-1.18,0-2.35-.94-2.35-2.55,0-1.83,1.18-2.63,2.23-2.74,1.6-.15,2.15,1.3,2.15,1.3l-.88.41c.45-.49.23-1.6-1.23-1.6-.68,0-1.66.85-1.66,2.51,0,1.49,1.02,2.31,2.04,2.31.72,0,1.43-.4,1.78-1.24h.08Z"/>
      <path class="cls-1" d="M102.75,35.44c0,1.46-1.17,2.65-2.61,2.65s-2.62-1.19-2.62-2.65,1.17-2.65,2.62-2.65,2.61,1.19,2.61,2.65M102.12,35.43c0-1.43-.88-2.58-1.98-2.58s-1.97,1.15-1.97,2.58.88,2.57,1.97,2.57,1.98-1.15,1.98-2.57"/>
      <path class="cls-1" d="M107.52,33.61v4.38h-.09l-2.95-4.34v3.51c0,.6.07.77.29.83h-.67c.23-.07.3-.23.3-.83v-3.43c0-.46-.33-.86-.33-.86h.67l2.67,3.94v-3.19c0-.49-.15-.7-.35-.75h.76c-.2.06-.29.23-.29.74"/>
      <path class="cls-1" d="M112.62,36.59c0,.91-.86,1.47-1.73,1.47-1.1,0-1.65-.62-1.86-1.01l.78-.33c-.25.48,0,1.27,1.09,1.27.7,0,1.24-.44,1.24-1.03,0-.73-.9-1.07-1.51-1.32-.86-.34-1.41-.65-1.41-1.42,0-.86.72-1.46,1.6-1.46.53,0,1.27.26,1.68.99l-.83.29c.32-.5-.1-1.19-.91-1.19-.56,0-1.1.43-1.1,1.05,0,.69.75.96,1.38,1.23.81.32,1.57.64,1.57,1.46"/>
      <path class="cls-1" d="M117.67,32.88h.7c-.21.07-.29.27-.29.78v2.39c0,1.46-.81,2.02-1.83,2.02s-2.07-.49-2.07-1.96v-2.38c0-.6-.07-.78-.29-.84h0s1.18,0,1.18,0h0c-.21.07-.29.25-.29.83v2.36c0,1.36.75,1.85,1.7,1.85.62,0,1.46-.42,1.46-1.85v-2.43c0-.49-.09-.69-.29-.75h0Z"/>
      <path class="cls-1" d="M123.14,37.99h-3.48c.22-.06.29-.38.29-.83v-3.45c0-.6-.07-.78-.29-.84h1.18c-.21.07-.29.25-.29.82v4.23h1.07c1.2,0,1.52-1.09,1.52-1.09v1.17Z"/>
      <path class="cls-1" d="M127.33,32.88v.94s-.34-.83-1.52-.83h-.14v4.17c0,.6.07.78.29.84h-1.18c.21-.07.29-.25.29-.82v-4.19h-.14c-1.12,0-1.51.83-1.51.83v-.94h3.91Z"/>
      <path class="cls-1" d="M133.59,35.44c0,1.46-1.17,2.65-2.61,2.65s-2.62-1.19-2.62-2.65,1.17-2.65,2.62-2.65,2.61,1.19,2.61,2.65M132.96,35.43c0-1.43-.88-2.58-1.98-2.58s-1.97,1.15-1.97,2.58.88,2.57,1.97,2.57,1.98-1.15,1.98-2.57"/>
      <path class="cls-1" d="M139.13,37.99h-.39c-.37,0-.59-.19-.78-.5-.27-.42-.65-1-.83-1.28-.21-.32-.4-.51-.69-.56h-.62v1.5c0,.6.07.77.29.83h-1.19c.22-.07.3-.25.3-.85v-3.67c0-.42-.3-.6-.3-.6h1.87c1.36,0,1.81.7,1.81,1.46s-.57,1.24-1.41,1.32c.2.07.39.19.56.4.13.17.68,1.04.85,1.32.37.63.54.63.54.63M137.99,34.26c0-.56-.23-1.29-1.2-1.29h-.96v2.58h.75c1.1,0,1.42-.74,1.42-1.29"/>
      <path class="cls-1" d="M141.41,37.99h-1.18c.22-.06.29-.24.29-.83v-3.57c0-.49-.09-.65-.29-.71h1.18c-.21.06-.29.23-.29.74v3.54c0,.6.07.77.29.83"/>
      <path class="cls-1" d="M146.09,37.99c.23-.29.04-.74-.15-1.19-.05-.12-.13-.3-.23-.52h-2.17c-.22.51-.38.92-.4.97-.15.4-.1.64.14.74h-.83c.25-.12.41-.22.62-.77.17-.45,1.77-4.37,1.77-4.37h.16s1.33,3.13,1.68,3.95c.26.6.42.89.8,1.19h-1.38ZM145.67,36.19c-.41-.96-1.08-2.49-1.08-2.49l-1.01,2.49h2.1Z"/>
      <path class="cls-1" d="M155.9,37.07v.92h-3.66c.22-.06.29-.22.29-.78v-3.45c0-.64-.07-.82-.29-.89h3.48v.92s-.26-.81-1.51-.81h-1.07v2.22h1.71v.1h-1.71v2.62h1.28c1.27,0,1.49-.85,1.49-.85"/>
      <path class="cls-1" d="M161.61,35.32c0,1.7-1.03,2.68-2.64,2.68h-1.81c.22-.07.29-.36.29-.83v-3.46c0-.44-.02-.69-.29-.83,0,0,1.27,0,1.64,0,2.01,0,2.81,1.25,2.81,2.44M160.95,35.43c0-1.46-.8-2.42-1.99-2.42h-.91v4.9h.9c1.28,0,1.99-.95,1.99-2.48"/>
      <path class="cls-1" d="M166.68,32.88h.7c-.21.07-.29.27-.29.78v2.39c0,1.46-.81,2.02-1.83,2.02s-2.07-.49-2.07-1.96v-2.38c0-.6-.07-.78-.29-.84h0s1.18,0,1.18,0h0c-.21.07-.29.25-.29.83v2.36c0,1.36.75,1.85,1.7,1.85.62,0,1.46-.42,1.46-1.85v-2.43c0-.49-.09-.69-.29-.75h0Z"/>
      <path class="cls-1" d="M173.19,36.45c-.43,1.11-1.31,1.61-2.17,1.61-1.18,0-2.35-.94-2.35-2.55,0-1.83,1.18-2.63,2.23-2.74,1.6-.15,2.15,1.3,2.15,1.3l-.88.41c.45-.49.23-1.6-1.23-1.6-.68,0-1.66.85-1.66,2.51,0,1.49,1.02,2.31,2.04,2.31.72,0,1.43-.4,1.78-1.24h.08Z"/>
      <path class="cls-1" d="M177.53,37.99c.23-.29.04-.74-.15-1.19-.05-.12-.13-.3-.23-.52h-2.17c-.22.51-.38.92-.4.97-.15.4-.1.64.14.74h-.83c.25-.12.41-.22.62-.77.17-.45,1.77-4.37,1.77-4.37h.16s1.33,3.13,1.67,3.95c.26.6.42.89.8,1.19h-1.39ZM177.11,36.19c-.41-.96-1.08-2.49-1.08-2.49l-1.01,2.49h2.1Z"/>
      <path class="cls-1" d="M184.04,36.45c-.43,1.11-1.31,1.61-2.17,1.61-1.18,0-2.35-.94-2.35-2.55,0-1.83,1.18-2.63,2.23-2.74,1.6-.15,2.15,1.3,2.15,1.3l-.88.41c.45-.49.23-1.6-1.23-1.6-.68,0-1.66.85-1.66,2.51,0,1.49,1.02,2.31,2.04,2.31.72,0,1.43-.4,1.78-1.24h.08Z"/>
      <path class="cls-1" d="M186.46,37.99h-1.18c.22-.06.29-.24.29-.83v-3.57c0-.49-.09-.65-.29-.71h1.18c-.21.06-.29.23-.29.74v3.54c0,.6.07.77.29.83"/>
      <path class="cls-1" d="M192.98,35.44c0,1.46-1.17,2.65-2.61,2.65s-2.62-1.19-2.62-2.65,1.17-2.65,2.62-2.65,2.61,1.19,2.61,2.65M192.35,35.43c0-1.43-.88-2.58-1.98-2.58s-1.97,1.15-1.97,2.58.88,2.57,1.97,2.57,1.98-1.15,1.98-2.57"/>
      <path class="cls-1" d="M197.75,33.61v4.38h-.09l-2.95-4.34v3.51c0,.6.07.77.29.83h-.67c.23-.07.3-.23.3-.83v-3.43c0-.46-.33-.86-.33-.86h.67l2.67,3.94v-3.19c0-.49-.14-.7-.35-.75h.76c-.2.06-.29.23-.29.74"/>
      <path class="cls-1" d="M202.72,37.99c.23-.29.04-.74-.15-1.19-.05-.12-.13-.3-.23-.52h-2.17c-.22.51-.38.92-.4.97-.15.4-.1.64.14.74h-.83c.25-.12.41-.22.62-.77.17-.45,1.77-4.37,1.77-4.37h.16s1.33,3.13,1.67,3.95c.26.6.42.89.8,1.19h-1.39ZM202.3,36.19c-.41-.96-1.08-2.49-1.08-2.49l-1.01,2.49h2.1Z"/>
      <path class="cls-1" d="M208.7,37.99h-3.48c.22-.06.29-.38.29-.83v-3.45c0-.6-.07-.78-.29-.84h1.18c-.21.07-.29.25-.29.82v4.23h1.07c1.2,0,1.52-1.09,1.52-1.09v1.17Z"/>
      <g>
        <path class="cls-1" d="M45.35,28.41c-2.99,12.34-15.41,19.93-27.76,16.94C5.25,42.36-2.34,29.94.65,17.59,3.64,5.25,16.06-2.34,28.41.65c12.34,2.99,19.93,15.41,16.94,27.76M21.82,5.67c.59,2.5,2,4.85,3.87,6.61.58-4.39,3.17-8.09,7.81-7.83-6.39-3.6-14.12-3.68-20.57-.18,3.06.8,5.94,2.14,8.58,4.05l-.24-2.72.29-.24c.06-.05.25.22.28.31M34.07,17.81c.02-.14.38-.39.5-.32.11.07.23.27.33.46l-.09,2.09c2.8-1.66,6.06-1.91,9.16-.7-.9-4.98-3.36-9.32-7.14-12.53-1.95-1.66-4.79-1.8-6.83-.27-.93.7-1.53,1.65-1.94,2.71-.9,2.32-.99,4.81-.03,7.11,1.1,2.67,1.83,5.36,2.34,8.25l1.33-1.71c1.14-1.48,2.07-3.22,2.37-5.09M26.86,21.58c-.57-4.32-3.12-9.65-6.57-12.13-1.4-1.01-2.85-1.85-4.43-2.54-3.21-1.4-6.8-.44-9.01,2.22-2.67,3.21-4.45,6.94-4.93,11.23,1.58-3.15,4.45-5.19,8.06-5.67-1.32-.73-2.78-1.32-3.45-2.81,1.91,1.48,3.86,2.35,6.16,2.66,5.68.32,10.57,2.55,14.17,7.05M33.31,38.29c.82.87,2.65,1.5,3.68.64,5-4.19,7.61-10.66,7.22-17.09-.06-1.05-.79-1.72-1.73-1.93-5.96-1.29-10.72,3.97-11.24,9.74.16-.42,2.14-2.66,2.38-2.28l.17.27c-3.16,2.68-3.21,7.77-.49,10.65M21.87,19.24c-1.3-.84-2.56-1.45-4-1.65-2.71-.39-5.13.91-6.36,3.35-1.43,2.86.1,5.05-1.12,4.53-.93-3.42.33-7.62,3.89-8.98-2.26-.34-4.57-.1-6.81.79-3.68,1.46-6.04,5.18-5.42,9.21.75,4.9,3.3,9.43,7.12,12.61,1.75,1.46,3.99,2.17,6.17,2.49,4.04.58,7.67-1.39,9.66-4.84,1.05-1.82,1.51-3.7,1.88-5.78.81-4.61-1.01-9.15-5.01-11.73"/>
        <path class="cls-1" d="M30.86,22.15c-.84-.95-1.35-2.52-.93-3.84.42-1.34,1.61-2.15,2.84-2.83,1.26,2.34.68,5.29-1.91,6.67"/>
        <path class="cls-1" d="M29.6,16.76c-.62-.7-1.08-1.64-.98-2.56.12-1.14,1.03-1.98,1.97-2.49,1.09,1.76.78,3.88-.99,5.05"/>
        <path class="cls-1" d="M35.6,18.78c-.27-.79-.2-1.82.3-2.55.57-.84,1.59-1.11,2.61-1.16.15,1.82-.91,3.49-2.91,3.71"/>
        <path class="cls-1" d="M33.92,16.22c-.44-.8-.6-1.76-.23-2.55.4-.85,1.28-1.36,2.18-1.58.56,1.71-.13,3.52-1.94,4.13"/>
        <path class="cls-1" d="M32.43,12.97c-.43-.75-.63-1.76-.23-2.56.39-.78,1.21-1.22,2.07-1.54.66,1.58-.03,3.46-1.83,4.11"/>
        <path class="cls-1" d="M28.86,11.88c-.46-.81-.5-1.65-.31-2.48.5-.79,1.23-1.31,2.18-1.6.59,1.67-.1,3.45-1.88,4.08"/>
        <path class="cls-1" d="M43.04,17.24c-1.27,1.13-2.99,1.26-4.48.47.44-.84,1.15-1.6,2.11-1.67.95-.07,1.78.55,2.37,1.2"/>
        <path class="cls-1" d="M36.77,14.41c-.25-.74-.05-1.73.53-2.32.65-.65,1.61-.81,2.49-.77-.03,1.65-1.2,3.05-3.02,3.09"/>
        <path class="cls-1" d="M32.52,8.41c-.27-.58.03-1.35.55-1.73.39-.29,1.07-.44,1.63-.32-.04,1.19-.97,2.04-2.19,2.05"/>
        <path class="cls-1" d="M37.67,8.66c-.24,1.27-1.06,1.92-2.13,1.92-.11-.66.03-1.31.54-1.73.37-.29,1.17-.58,1.58-.19"/>
        <path class="cls-1" d="M41.53,14.06c-.32,1.09-1.16,1.76-2.31,1.59.02-.59.23-1.21.72-1.49.42-.24,1.05-.26,1.59-.1"/>
        <path class="cls-1" d="M31.87,8.17c-.65-.41-.95-1.27-.44-1.89.27.13.62.47.73.72.13.3-.03.94-.29,1.18"/>
        <path class="cls-1" d="M24.72,16.98c-2.7.58-4.86-1.23-5.5-3.85,1.29-.29,2.69-.36,3.82.38,1.11.73,1.56,2.12,1.68,3.47"/>
        <path class="cls-1" d="M18.62,14.61c-2.1.87-4.26-.39-4.97-2.4,1.1-.36,2.16-.61,3.15-.17,1,.45,1.57,1.5,1.82,2.57"/>
        <path class="cls-1" d="M21.26,11.94c-2.15.9-4.27-.39-4.97-2.38,1.06-.37,2.13-.63,3.13-.18.99.44,1.55,1.49,1.84,2.57"/>
        <path class="cls-1" d="M15.91,10.92c-1.7.74-3.58-.29-4.12-1.98.88-.29,1.74-.49,2.51-.17.86.35,1.36,1.17,1.6,2.16"/>
        <path class="cls-1" d="M13.26,13.64c-1.48.87-3.07-.03-4.33-1.06.57-.44,1.18-.76,1.9-.84,1.17-.12,2.29.72,2.42,1.9"/>
        <path class="cls-1" d="M7.87,14.58c-.9,1.2-2.47,1.37-3.73.59.38-.63.93-1.27,1.64-1.44.76-.18,1.53.29,2.09.86"/>
        <path class="cls-1" d="M10.74,10.63c-1.26.75-2.66.18-3.31-1.02.61-.34,1.27-.55,1.85-.43.64.14,1.12.69,1.46,1.45"/>
        <path class="cls-1" d="M16.93,8.21c-1.1.73-2.36.51-3.12-.53.5-.41,1.15-.69,1.68-.63.62.07,1.12.55,1.45,1.17"/>
        <path class="cls-1" d="M12.48,7.67c-.74.78-1.83.88-2.7.06.31-.37.82-.71,1.22-.77.56-.09,1.1.26,1.48.71"/>
        <path class="cls-1" d="M25.2,10.91c-.82-.57-1.54-1.46-1.54-2.49,0-.98.56-1.84,1.29-2.59,1.42,1.34,1.71,3.52.25,5.07"/>
        <path class="cls-1" d="M23.4,7.23c-.67-.29-1.11-1.07-1.1-1.82.01-.74.52-1.4,1.11-1.92,1.01,1.04,1.04,2.58-.01,3.74"/>
        <path class="cls-1" d="M26.57,7.52c-.36-.51-.68-1.28-.53-1.93.18-.76.86-1.29,1.52-1.61.67,1.26.36,2.76-.99,3.55"/>
        <path class="cls-1" d="M20.93,6.98c-.79.04-1.5-.23-1.91-.88-.3-.47-.37-1.25-.22-1.91,1.4.21,2.28,1.36,2.13,2.79"/>
        <path class="cls-1" d="M25.62,5.34c-.54-.11-.91-.87-.96-1.32-.07-.69.29-1.28.87-1.74.81.81.99,2.16.09,3.06"/>
        <path class="cls-1" d="M18.14,5.16c-1.51.35-2.21,0-2.75-1.45,1.2-.43,2.46.2,2.75,1.45"/>
        <path class="cls-1" d="M21.71,4.79c-.5.23-1.14-.31-1.35-.66-.33-.56-.28-1.3.08-1.87.96.38,1.62,1.41,1.27,2.52"/>
        <path class="cls-1" d="M30.05,3.38c.07,1.01-.78,1.96-1.68,1.88-.23-.43-.02-1.22.31-1.6.25-.29.99-.61,1.37-.28"/>
      </g>
    </g>
  </g>
</svg>