<svg width="244" height="46" viewBox="0 0 244 46" fill="none" xmlns="http://www.w3.org/2000/svg">
<g clip-path="url(#clip0_131_82)">
<path d="M52.97 26.69L51.85 26.72C51.85 26.61 51.86 26.53 51.89 26.48C51.92 26.43 51.97 26.41 52.05 26.39C52.4 26.33 52.66 26.26 52.82 26.16C52.98 26.06 53.08 25.92 53.13 25.73C53.17 25.54 53.21 25.23 53.23 24.8C53.31 23.13 53.35 21.59 53.35 20.17V19.61C53.34 18.49 53.3 17.41 53.23 16.39C53.2 15.96 53.15 15.66 53.09 15.5C53.03 15.34 52.92 15.22 52.75 15.16C52.58 15.1 52.27 15.05 51.81 15.02C51.81 14.88 51.83 14.79 51.86 14.74C51.89 14.69 51.95 14.66 52.03 14.66C52.21 14.66 52.39 14.66 52.55 14.66C52.71 14.66 52.89 14.67 53.09 14.68C53.34 14.69 53.54 14.7 53.69 14.7C53.84 14.7 54.03 14.7 54.27 14.72C54.67 14.71 55.07 14.7 55.48 14.69C55.75 14.68 56.01 14.67 56.24 14.66C56.47 14.65 56.71 14.64 56.95 14.64C58.37 14.64 59.48 14.92 60.28 15.49C61.08 16.06 61.48 16.86 61.48 17.91C61.48 18.61 61.29 19.24 60.9 19.78C60.51 20.32 59.98 20.75 59.31 21.05C58.63 21.35 57.87 21.5 57.02 21.5C56.66 21.5 56.4 21.47 56.25 21.4C56.1 21.33 56.02 21.17 56.02 20.92C56.27 20.95 56.5 20.97 56.7 20.97C57.55 20.97 58.2 20.71 58.65 20.18C59.1 19.65 59.32 18.92 59.32 17.99C59.32 17.06 59.08 16.39 58.61 15.88C58.14 15.37 57.47 15.11 56.59 15.11C56.2 15.11 55.92 15.14 55.75 15.2C55.57 15.26 55.45 15.38 55.38 15.55C55.31 15.72 55.28 15.99 55.28 16.35V20.15C55.28 21.81 55.32 23.36 55.38 24.8C55.39 25.28 55.43 25.61 55.5 25.8C55.57 25.99 55.7 26.12 55.91 26.19C56.12 26.26 56.48 26.32 57 26.35C57 26.49 56.98 26.58 56.94 26.63C56.9 26.68 56.82 26.71 56.69 26.71C56.5 26.71 56.31 26.71 56.15 26.71C55.98 26.71 55.79 26.7 55.59 26.68C55.03 26.66 54.61 26.65 54.33 26.65C53.92 26.66 53.47 26.67 52.99 26.68" fill="#121B0E"/>
<path d="M62.19 26.43C62.22 26.38 62.27 26.35 62.35 26.34C62.6 26.31 62.78 26.26 62.9 26.2C63.02 26.14 63.11 26.02 63.16 25.84C63.22 25.66 63.25 25.4 63.25 25.05V21.51C63.25 21.23 63.22 21 63.16 20.85C63.1 20.69 63.01 20.56 62.87 20.46C62.73 20.36 62.53 20.27 62.27 20.19C62.26 20.11 62.27 20.05 62.29 20C62.31 19.96 62.36 19.91 62.44 19.86L64.45 18.96C64.59 18.9 64.69 18.87 64.77 18.86C64.85 18.85 64.92 18.84 64.99 18.84C65 19.15 65.01 19.39 65.02 19.56C65.02 19.74 65.03 19.97 65.05 20.25V20.95L65.1 21.09V25.26C65.11 25.58 65.15 25.81 65.2 25.95C65.26 26.09 65.38 26.19 65.57 26.25C65.76 26.31 66.07 26.35 66.52 26.39C66.52 26.5 66.51 26.59 66.48 26.64C66.45 26.69 66.39 26.72 66.28 26.72L65.65 26.7C65.15 26.7 64.65 26.7 64.15 26.68L62.97 26.7C62.77 26.71 62.49 26.72 62.14 26.72C62.14 26.6 62.15 26.51 62.18 26.46M66.08 19.38C66.48 18.99 66.83 18.79 67.15 18.79C67.39 18.79 67.59 18.86 67.76 18.99C67.93 19.13 68.02 19.28 68.02 19.45C68.02 19.6 67.97 19.82 67.87 20.11C67.79 20.34 67.68 20.6 67.55 20.91C67.21 20.8 66.94 20.72 66.75 20.67C66.56 20.62 66.4 20.6 66.29 20.6C66.15 20.6 65.98 20.66 65.76 20.79C65.54 20.91 65.27 21.14 64.94 21.47L64.75 21.32C65.24 20.41 65.68 19.76 66.08 19.37" fill="#121B0E"/>
<path d="M70.47 26.35C69.89 26.02 69.42 25.56 69.08 24.97C68.74 24.38 68.57 23.71 68.57 22.94C68.57 22.17 68.75 21.45 69.12 20.83C69.49 20.21 69.99 19.71 70.61 19.36C71.23 19 71.92 18.82 72.65 18.82C73.38 18.82 74 18.98 74.58 19.31C75.16 19.64 75.62 20.09 75.95 20.66C76.28 21.23 76.44 21.88 76.44 22.61C76.44 23.38 76.26 24.09 75.91 24.74C75.56 25.39 75.07 25.9 74.45 26.27C73.83 26.65 73.15 26.83 72.4 26.83C71.65 26.83 71.03 26.67 70.45 26.34M74.07 25.49C74.38 24.98 74.53 24.28 74.53 23.38C74.53 22.68 74.44 22.02 74.27 21.42C74.1 20.82 73.85 20.34 73.51 19.97C73.18 19.61 72.77 19.43 72.29 19.43C71.71 19.43 71.26 19.67 70.94 20.15C70.62 20.63 70.46 21.31 70.46 22.19C70.46 22.88 70.55 23.54 70.73 24.16C70.91 24.78 71.18 25.29 71.52 25.67C71.87 26.06 72.28 26.25 72.76 26.25C73.32 26.25 73.75 25.99 74.05 25.48" fill="#121B0E"/>
<path d="M77.22 19.7C77.22 19.61 77.38 19.47 77.69 19.28C78 19.09 78.23 19 78.36 19H82.43L82.48 19.1L82.34 19.44C82.28 19.56 82.22 19.65 82.16 19.7C82.1 19.74 82.02 19.77 81.93 19.77H77.28C77.28 19.77 77.21 19.75 77.21 19.7M77.39 26.43C77.42 26.38 77.47 26.35 77.55 26.34C77.81 26.31 78 26.26 78.13 26.2C78.26 26.14 78.34 26.05 78.39 25.93C78.44 25.81 78.47 25.61 78.47 25.35V18.81C78.47 17.95 78.69 17.1 79.12 16.26C79.55 15.42 80.12 14.73 80.83 14.19C81.54 13.65 82.28 13.38 83.05 13.38C83.42 13.38 83.73 13.47 83.97 13.64C84.21 13.81 84.33 14.04 84.33 14.32C84.33 14.48 84.3 14.66 84.24 14.86C84.18 15.06 84.1 15.24 84.01 15.4C83.77 15.14 83.49 14.94 83.15 14.79C82.82 14.64 82.45 14.57 82.05 14.57C81.49 14.57 81.07 14.77 80.78 15.17C80.49 15.57 80.35 16.17 80.35 16.98V25.17C80.35 25.51 80.39 25.76 80.46 25.92C80.53 26.08 80.67 26.19 80.87 26.25C81.07 26.31 81.39 26.36 81.83 26.39C81.83 26.51 81.82 26.6 81.8 26.65C81.78 26.69 81.72 26.72 81.63 26.72L81 26.7C80.49 26.7 79.97 26.7 79.45 26.68L78.33 26.7C78.09 26.71 77.77 26.72 77.36 26.72C77.36 26.6 77.37 26.51 77.4 26.46" fill="#121B0E"/>
<path d="M83.44 26.52C83.25 26.33 83.16 26.08 83.16 25.76C83.16 25.44 83.27 25.18 83.49 24.96C83.71 24.75 83.98 24.64 84.3 24.64C84.62 24.64 84.87 24.74 85.06 24.93C85.25 25.12 85.34 25.38 85.34 25.7C85.34 26.02 85.22 26.28 84.99 26.49C84.76 26.7 84.49 26.81 84.18 26.81C83.87 26.81 83.63 26.72 83.44 26.53" fill="#121B0E"/>
<path d="M90.56 26.49C90.56 26.49 90.64 26.42 90.73 26.41C91.07 26.35 91.32 26.28 91.47 26.19C91.62 26.1 91.73 25.96 91.79 25.78C91.85 25.6 91.88 25.3 91.89 24.89V24.82C91.97 22.96 92.01 21.42 92.01 20.19C92.01 18.81 91.97 17.54 91.89 16.41C91.86 15.99 91.81 15.7 91.75 15.53C91.69 15.37 91.58 15.25 91.41 15.18C91.24 15.11 90.93 15.06 90.49 15.03C90.49 14.89 90.51 14.8 90.54 14.75C90.57 14.7 90.64 14.67 90.73 14.67C90.98 14.68 91.22 14.69 91.46 14.7C91.68 14.71 91.9 14.72 92.14 14.73C92.38 14.73 92.62 14.73 92.87 14.73C93.07 14.73 93.31 14.73 93.57 14.71C93.83 14.7 94.11 14.69 94.4 14.68C94.74 14.67 95.06 14.66 95.37 14.65C95.68 14.64 95.96 14.63 96.22 14.63C97.7 14.63 98.96 14.9 100.03 15.43C101.09 15.96 101.9 16.67 102.45 17.53C103 18.4 103.28 19.33 103.28 20.33C103.28 21.49 102.99 22.55 102.41 23.51C101.83 24.47 100.97 25.24 99.82 25.82C98.67 26.39 97.29 26.68 95.68 26.68C95.16 26.68 94.72 26.68 94.37 26.66C93.86 26.66 93.37 26.66 92.91 26.64C92.47 26.65 91.98 26.66 91.46 26.67L90.52 26.7C90.52 26.59 90.53 26.51 90.56 26.46M98.88 25.33C99.63 24.84 100.19 24.19 100.54 23.37C100.89 22.55 101.07 21.63 101.07 20.61C101.07 19.59 100.89 18.69 100.53 17.88C100.17 17.07 99.6 16.42 98.83 15.93C98.06 15.44 97.09 15.2 95.92 15.2C95.36 15.2 94.96 15.24 94.69 15.31C94.43 15.38 94.25 15.53 94.16 15.74C94.07 15.95 94.02 16.28 94.02 16.74V23.96C94.02 24.6 94.06 25.05 94.14 25.34C94.22 25.62 94.38 25.81 94.61 25.91C94.84 26.01 95.23 26.06 95.76 26.07H96.03C97.18 26.07 98.13 25.83 98.88 25.34" fill="#121B0E"/>
<path d="M104.36 26.43C104.39 26.38 104.44 26.35 104.52 26.34C104.77 26.31 104.95 26.26 105.07 26.2C105.19 26.14 105.28 26.02 105.33 25.84C105.39 25.66 105.42 25.4 105.42 25.05V21.51C105.42 21.23 105.39 21 105.33 20.85C105.27 20.69 105.18 20.56 105.04 20.46C104.9 20.36 104.7 20.27 104.44 20.19C104.43 20.11 104.44 20.05 104.46 20C104.48 19.96 104.53 19.91 104.61 19.86L106.62 18.96C106.76 18.9 106.86 18.87 106.94 18.86C107.02 18.85 107.09 18.84 107.16 18.84C107.17 19.15 107.18 19.39 107.19 19.56C107.19 19.74 107.2 19.97 107.22 20.25V20.95L107.27 21.09V25.26C107.28 25.58 107.32 25.81 107.37 25.95C107.43 26.09 107.55 26.19 107.74 26.25C107.93 26.31 108.24 26.35 108.69 26.39C108.69 26.5 108.68 26.59 108.65 26.64C108.62 26.69 108.56 26.72 108.45 26.72L107.82 26.7C107.32 26.7 106.82 26.7 106.32 26.68L105.14 26.7C104.94 26.71 104.66 26.72 104.31 26.72C104.31 26.6 104.32 26.51 104.35 26.46M108.25 19.38C108.65 18.99 109 18.79 109.32 18.79C109.56 18.79 109.76 18.86 109.93 18.99C110.1 19.13 110.19 19.28 110.19 19.45C110.19 19.6 110.14 19.82 110.04 20.11C109.96 20.34 109.85 20.6 109.72 20.91C109.38 20.8 109.11 20.72 108.92 20.67C108.73 20.62 108.57 20.6 108.46 20.6C108.32 20.6 108.15 20.66 107.93 20.79C107.71 20.91 107.44 21.14 107.11 21.47L106.92 21.32C107.41 20.41 107.85 19.76 108.25 19.37" fill="#121B0E"/>
<path d="M116.16 26.69C115.98 26.69 115.76 26.69 115.49 26.71C115.12 26.72 114.73 26.73 114.33 26.73C114.33 26.62 114.34 26.54 114.36 26.49C114.38 26.44 114.44 26.42 114.53 26.4C114.89 26.34 115.15 26.27 115.3 26.19C115.45 26.11 115.55 25.97 115.6 25.79C115.64 25.61 115.68 25.32 115.7 24.92C115.78 22.95 115.82 21.36 115.82 20.17C115.82 18.68 115.78 17.43 115.7 16.41C115.67 15.98 115.62 15.68 115.56 15.52C115.5 15.36 115.39 15.24 115.22 15.18C115.05 15.12 114.74 15.07 114.28 15.04C114.28 14.9 114.3 14.81 114.33 14.76C114.36 14.71 114.42 14.68 114.5 14.68C114.75 14.68 115.11 14.69 115.59 14.71C115.83 14.72 116.02 14.73 116.18 14.73C116.34 14.73 116.53 14.73 116.77 14.75C117.1 14.75 117.51 14.74 118 14.72C118.21 14.7 118.41 14.68 118.61 14.68C118.81 14.68 119.01 14.68 119.21 14.68C120.08 14.68 120.84 14.79 121.49 15.02C122.14 15.25 122.64 15.58 123 16.02C123.36 16.46 123.54 16.98 123.54 17.59C123.54 18.12 123.38 18.61 123.06 19.06C122.74 19.51 122.3 19.88 121.72 20.18C121.15 20.47 120.48 20.67 119.72 20.76L119.69 20.64C120.33 20.64 120.83 20.71 121.2 20.85C121.58 20.99 121.87 21.2 122.08 21.47C122.29 21.74 122.49 22.11 122.69 22.56C123.01 23.33 123.29 23.97 123.55 24.48C123.81 24.99 124.04 25.39 124.24 25.67C124.4 25.92 124.57 26.1 124.76 26.22C124.95 26.34 125.17 26.4 125.43 26.41C125.43 26.52 125.42 26.61 125.39 26.66C125.36 26.71 125.29 26.74 125.18 26.74H123.29C122.91 26.74 122.63 26.67 122.44 26.54C122.25 26.41 122.05 26.13 121.84 25.69C121.64 25.25 121.3 24.43 120.82 23.23C120.51 22.5 120.28 21.99 120.1 21.69C119.93 21.39 119.76 21.19 119.59 21.09C119.42 20.99 119.16 20.91 118.82 20.87C118.64 20.85 118.52 20.8 118.47 20.74C118.42 20.68 118.39 20.56 118.39 20.37C118.47 20.38 118.56 20.39 118.67 20.4C118.78 20.41 118.88 20.42 118.97 20.42C119.73 20.42 120.32 20.18 120.72 19.7C121.13 19.22 121.33 18.55 121.33 17.7C121.33 16.92 121.12 16.3 120.71 15.84C120.3 15.38 119.71 15.16 118.95 15.16C118.61 15.16 118.35 15.19 118.18 15.26C118.01 15.33 117.89 15.44 117.82 15.61C117.75 15.77 117.72 16.03 117.72 16.37V20.51C117.73 21.5 117.74 22.5 117.75 23.51C117.77 23.98 117.79 24.45 117.8 24.94C117.82 25.34 117.87 25.63 117.95 25.83C118.02 26.02 118.16 26.16 118.35 26.25C118.54 26.33 118.86 26.4 119.3 26.45C119.31 26.56 119.3 26.64 119.27 26.69C119.24 26.73 119.18 26.76 119.07 26.76C118.76 26.76 118.46 26.76 118.15 26.74C117.67 26.73 117.22 26.72 116.8 26.71C116.53 26.72 116.3 26.73 116.13 26.73" fill="#121B0E"/>
<path d="M126 26.47C126 26.47 126.08 26.4 126.15 26.39C126.42 26.33 126.61 26.27 126.73 26.21C126.84 26.15 126.92 26.05 126.97 25.9C127.01 25.76 127.04 25.53 127.04 25.21V21.5C127.04 21.21 127.01 20.98 126.95 20.83C126.89 20.68 126.8 20.55 126.66 20.45C126.52 20.35 126.31 20.25 126.03 20.16C126.03 20.08 126.04 20.02 126.07 19.97C126.1 19.93 126.15 19.88 126.22 19.85L128.31 18.96C128.43 18.9 128.54 18.87 128.63 18.85C128.72 18.83 128.82 18.82 128.94 18.82C128.92 19.32 128.91 19.76 128.91 20.15V25.21C128.91 25.55 128.93 25.79 128.98 25.94C129.02 26.09 129.12 26.19 129.25 26.25C129.39 26.31 129.62 26.35 129.95 26.37C129.96 26.49 129.95 26.58 129.92 26.62C129.89 26.67 129.82 26.69 129.71 26.69L129.15 26.67C128.75 26.67 128.35 26.67 127.94 26.65L126.82 26.67C126.61 26.68 126.33 26.69 125.97 26.69C125.97 26.59 125.98 26.51 126.01 26.47M127.03 16.52C126.85 16.32 126.76 16.08 126.76 15.8C126.76 15.48 126.88 15.21 127.13 14.99C127.37 14.77 127.67 14.65 128.01 14.62C128.28 14.64 128.51 14.74 128.7 14.93C128.89 15.11 128.98 15.35 128.98 15.64C128.98 15.96 128.86 16.23 128.61 16.46C128.37 16.69 128.07 16.81 127.72 16.84C127.45 16.83 127.22 16.72 127.04 16.52" fill="#121B0E"/>
<path d="M130.81 26.43C130.84 26.38 130.89 26.35 130.97 26.34C131.2 26.31 131.36 26.26 131.47 26.21C131.58 26.16 131.66 26.07 131.71 25.95C131.76 25.83 131.79 25.65 131.79 25.41V21.48C131.79 21.2 131.76 20.98 131.7 20.82C131.64 20.66 131.55 20.53 131.41 20.44C131.27 20.34 131.08 20.24 130.81 20.14C130.8 20.06 130.81 20 130.84 19.96C130.87 19.92 130.93 19.88 131.04 19.83L132.98 18.96C133.1 18.9 133.21 18.87 133.29 18.85C133.37 18.83 133.45 18.83 133.55 18.83C133.56 19.34 133.58 19.78 133.6 20.14L133.65 20.29V25.5C133.65 25.72 133.67 25.88 133.72 25.99C133.77 26.1 133.85 26.19 133.98 26.24C134.11 26.29 134.31 26.33 134.58 26.37C134.59 26.48 134.58 26.57 134.55 26.62C134.52 26.67 134.45 26.7 134.34 26.7L133.86 26.68C133.47 26.68 133.08 26.68 132.69 26.66C132.3 26.67 131.92 26.68 131.53 26.68C131.34 26.69 131.08 26.7 130.76 26.7C130.76 26.58 130.77 26.49 130.8 26.44M135.57 26.45C135.6 26.4 135.65 26.37 135.73 26.36C135.96 26.33 136.12 26.27 136.23 26.2C136.34 26.13 136.41 26.01 136.46 25.84C136.5 25.68 136.53 25.43 136.53 25.1V21.37C136.53 20.87 136.42 20.52 136.19 20.31C135.96 20.11 135.62 20 135.15 20C134.89 20 134.63 20.03 134.36 20.09C134.09 20.15 133.82 20.26 133.53 20.41L133.41 20.16C133.92 19.74 134.42 19.41 134.91 19.18C135.4 18.95 135.89 18.83 136.39 18.83C136.98 18.83 137.46 19 137.83 19.34C138.2 19.68 138.38 20.19 138.38 20.87V25.23C138.38 25.55 138.41 25.78 138.46 25.92C138.51 26.06 138.6 26.16 138.73 26.23C138.86 26.29 139.06 26.33 139.32 26.36C139.32 26.48 139.31 26.57 139.29 26.62C139.27 26.67 139.21 26.7 139.1 26.7L138.67 26.68C138.25 26.68 137.84 26.68 137.43 26.66L136.34 26.68C136.14 26.69 135.86 26.7 135.52 26.7C135.52 26.59 135.53 26.5 135.56 26.45" fill="#121B0E"/>
<path d="M141.27 26.62C140.98 26.46 140.74 26.22 140.56 25.92C140.38 25.62 140.29 25.28 140.29 24.89C140.29 24.5 140.39 24.19 140.6 23.95C140.81 23.71 141.17 23.47 141.69 23.22L143.94 22.04C144.11 21.95 144.23 21.86 144.32 21.78C144.4 21.7 144.45 21.61 144.47 21.51C144.49 21.41 144.5 21.27 144.5 21.08C144.5 20.63 144.4 20.31 144.18 20.13C143.97 19.95 143.6 19.86 143.08 19.86C142.68 19.86 142.28 19.92 141.87 20.04C141.46 20.16 141.06 20.32 140.66 20.53C140.57 20.35 140.55 20.21 140.59 20.11C140.63 20.01 140.77 19.9 141 19.78C141.48 19.5 141.98 19.27 142.52 19.09C143.06 18.91 143.6 18.83 144.13 18.83C144.83 18.83 145.37 18.99 145.76 19.31C146.14 19.63 146.33 20.1 146.33 20.74V25.15C146.33 25.39 146.35 25.55 146.4 25.63C146.44 25.71 146.53 25.75 146.66 25.75C146.84 25.75 147.11 25.67 147.46 25.51C147.48 25.57 147.49 25.63 147.49 25.7C147.49 25.75 147.47 25.79 147.42 25.85C147.37 25.9 147.3 25.95 147.2 26.01C146.87 26.25 146.51 26.45 146.11 26.62C145.71 26.79 145.41 26.88 145.19 26.88C144.99 26.88 144.83 26.74 144.71 26.45C144.6 26.16 144.52 25.77 144.49 25.28H144.46C143.93 25.88 143.49 26.3 143.16 26.53C142.82 26.76 142.5 26.88 142.2 26.88C141.9 26.88 141.58 26.8 141.28 26.63M143.72 25.36C143.93 25.2 144.12 24.98 144.26 24.72C144.41 24.46 144.48 24.2 144.48 23.94V22.32L143.07 23.03C142.69 23.23 142.43 23.43 142.29 23.61C142.14 23.79 142.07 24.03 142.07 24.34C142.07 24.7 142.17 25 142.37 25.24C142.57 25.48 142.8 25.6 143.08 25.6C143.3 25.6 143.51 25.52 143.73 25.35" fill="#121B0E"/>
<path d="M148.16 26.43C148.19 26.38 148.24 26.35 148.32 26.34C148.57 26.31 148.75 26.26 148.87 26.2C148.99 26.14 149.08 26.02 149.13 25.84C149.19 25.66 149.22 25.4 149.22 25.05V21.51C149.22 21.23 149.19 21 149.13 20.85C149.07 20.69 148.98 20.56 148.84 20.46C148.7 20.36 148.5 20.27 148.24 20.19C148.23 20.11 148.24 20.05 148.26 20C148.28 19.96 148.33 19.91 148.41 19.86L150.42 18.96C150.56 18.9 150.66 18.87 150.74 18.86C150.82 18.85 150.89 18.84 150.96 18.84C150.97 19.15 150.98 19.39 150.99 19.56C150.99 19.74 151 19.97 151.02 20.25V20.95L151.07 21.09V25.26C151.08 25.58 151.12 25.81 151.17 25.95C151.23 26.09 151.35 26.19 151.54 26.25C151.73 26.31 152.04 26.35 152.49 26.39C152.49 26.5 152.48 26.59 152.45 26.64C152.42 26.69 152.36 26.72 152.25 26.72L151.62 26.7C151.12 26.7 150.62 26.7 150.12 26.68L148.94 26.7C148.74 26.71 148.46 26.72 148.11 26.72C148.11 26.6 148.12 26.51 148.15 26.46M152.05 19.38C152.45 18.99 152.8 18.79 153.12 18.79C153.36 18.79 153.56 18.86 153.73 18.99C153.9 19.13 153.99 19.28 153.99 19.45C153.99 19.6 153.94 19.82 153.84 20.11C153.76 20.34 153.65 20.6 153.52 20.91C153.18 20.8 152.91 20.72 152.72 20.67C152.53 20.62 152.37 20.6 152.26 20.6C152.12 20.6 151.95 20.66 151.73 20.79C151.51 20.91 151.24 21.14 150.91 21.47L150.72 21.32C151.21 20.41 151.65 19.76 152.05 19.37" fill="#121B0E"/>
<path d="M156.1 26.41C155.63 26.12 155.25 25.7 154.96 25.15C154.66 24.6 154.52 23.94 154.52 23.18C154.52 22.37 154.7 21.64 155.06 20.97C155.42 20.3 155.91 19.78 156.55 19.4C157.18 19.02 157.89 18.83 158.66 18.83C158.93 18.83 159.21 18.86 159.49 18.92C159.77 18.98 160.01 19.04 160.2 19.12V16.06C160.2 15.79 160.17 15.57 160.12 15.41C160.06 15.25 159.97 15.12 159.83 15.02C159.69 14.92 159.49 14.82 159.22 14.73C159.22 14.65 159.23 14.58 159.26 14.53C159.29 14.48 159.35 14.44 159.44 14.4L161.65 13.53C161.77 13.48 161.88 13.45 161.97 13.44C162.06 13.43 162.14 13.41 162.21 13.41C162.15 13.66 162.12 13.92 162.1 14.18C162.08 14.44 162.07 14.75 162.07 15.1V24.84C162.07 25.11 162.1 25.32 162.15 25.46C162.2 25.6 162.3 25.7 162.46 25.77C162.61 25.83 162.84 25.87 163.15 25.9C163.15 26.01 163.14 26.09 163.12 26.13C163.1 26.17 163.04 26.2 162.93 26.22L160.53 26.8L160.39 26.73L160.22 25.64C159.71 26.03 159.23 26.32 158.78 26.53C158.33 26.74 157.92 26.85 157.56 26.85C157.05 26.85 156.56 26.7 156.1 26.41ZM159.73 25.25C160.05 24.87 160.21 24.31 160.21 23.56V21.36C160.21 20.74 160.04 20.25 159.71 19.9C159.38 19.55 158.95 19.38 158.44 19.38C157.83 19.38 157.34 19.66 156.99 20.21C156.64 20.77 156.46 21.54 156.46 22.53C156.46 23.21 156.55 23.8 156.72 24.29C156.89 24.78 157.13 25.16 157.44 25.41C157.75 25.67 158.12 25.79 158.54 25.79C159 25.79 159.4 25.6 159.72 25.23" fill="#121B0E"/>
<path d="M165.85 26.35C165.27 26.02 164.8 25.56 164.46 24.97C164.12 24.38 163.95 23.71 163.95 22.94C163.95 22.17 164.13 21.45 164.5 20.83C164.87 20.21 165.36 19.71 165.99 19.36C166.61 19 167.3 18.82 168.03 18.82C168.76 18.82 169.38 18.98 169.96 19.31C170.54 19.64 171 20.09 171.33 20.66C171.66 21.23 171.82 21.88 171.82 22.61C171.82 23.38 171.64 24.09 171.29 24.74C170.94 25.39 170.45 25.9 169.83 26.27C169.21 26.65 168.53 26.83 167.78 26.83C167.03 26.83 166.41 26.67 165.83 26.34M169.45 25.49C169.76 24.98 169.91 24.28 169.91 23.38C169.91 22.68 169.82 22.02 169.65 21.42C169.48 20.82 169.23 20.34 168.89 19.97C168.56 19.61 168.15 19.43 167.67 19.43C167.09 19.43 166.64 19.67 166.32 20.15C166 20.63 165.84 21.31 165.84 22.19C165.84 22.88 165.93 23.54 166.11 24.16C166.29 24.78 166.56 25.29 166.9 25.67C167.25 26.06 167.66 26.25 168.14 26.25C168.7 26.25 169.13 25.99 169.43 25.48" fill="#121B0E"/>
<path d="M179.92 18.56C179.76 18.14 179.6 17.73 179.44 17.33C179.28 16.93 179.13 16.53 178.98 16.15L179.2 16.13L178.52 22.46C178.41 23.65 178.35 24.49 178.35 24.98C178.35 25.3 178.38 25.55 178.44 25.73C178.5 25.91 178.63 26.06 178.83 26.17C179.03 26.28 179.33 26.36 179.72 26.41C179.72 26.52 179.7 26.6 179.68 26.65C179.65 26.69 179.58 26.72 179.47 26.72C179.22 26.72 178.97 26.72 178.72 26.7C178.4 26.69 178.08 26.68 177.75 26.67C177.42 26.68 177.07 26.69 176.7 26.69L175.93 26.71C175.93 26.57 175.94 26.49 175.97 26.45C176 26.41 176.07 26.38 176.18 26.36C176.47 26.31 176.71 26.24 176.89 26.13C177.07 26.02 177.21 25.84 177.32 25.58C177.43 25.32 177.52 24.95 177.58 24.47L178.33 17.39C178.37 16.96 178.4 16.62 178.4 16.39C178.4 16.16 178.36 15.95 178.3 15.79C178.24 15.63 178.12 15.49 177.95 15.37C177.79 15.25 177.55 15.14 177.23 15.04C177.23 14.94 177.24 14.86 177.27 14.82C177.3 14.77 177.36 14.75 177.47 14.75L177.86 14.77C178.02 14.78 178.17 14.79 178.3 14.8C178.44 14.8 178.59 14.8 178.76 14.8C179.03 14.79 179.31 14.78 179.58 14.78C179.72 14.77 179.89 14.76 180.11 14.76C180.29 14.76 180.43 14.79 180.51 14.85C180.6 14.91 180.67 15.03 180.72 15.2C181.08 16.27 181.51 17.42 182 18.67C182.49 19.92 183 21.23 183.53 22.6L184.07 23.96L183.78 24.03L186.38 17.35C186.62 16.7 186.85 16 187.06 15.24C187.08 15.13 187.11 15.02 187.15 14.93C187.21 14.77 187.3 14.69 187.44 14.69C187.54 14.69 187.63 14.69 187.71 14.71C187.95 14.73 188.2 14.74 188.46 14.74C189.07 14.74 189.59 14.73 190.03 14.71C190.1 14.71 190.15 14.71 190.17 14.71C190.2 14.71 190.25 14.71 190.33 14.71C190.33 14.83 190.32 14.92 190.29 14.97C190.26 15.02 190.2 15.05 190.11 15.09C189.84 15.17 189.64 15.27 189.52 15.41C189.4 15.54 189.33 15.71 189.31 15.91C189.29 16.11 189.3 16.4 189.34 16.76L190.26 24.73C190.29 25.14 190.37 25.46 190.49 25.69C190.61 25.92 190.77 26.09 190.96 26.2C191.15 26.31 191.4 26.38 191.71 26.41C191.71 26.53 191.7 26.62 191.67 26.67C191.64 26.71 191.58 26.74 191.47 26.74L190.89 26.72C190.3 26.7 189.78 26.69 189.34 26.69C189.1 26.69 188.88 26.69 188.68 26.69C188.48 26.69 188.25 26.7 188 26.72C187.67 26.73 187.34 26.74 186.99 26.74C186.99 26.63 187 26.54 187.02 26.49C187.04 26.44 187.11 26.41 187.22 26.4C187.58 26.34 187.84 26.24 187.99 26.08C188.14 25.93 188.22 25.68 188.22 25.34C188.21 25.1 188.2 24.84 188.19 24.54L188.12 23.94L187.32 16.38L187.4 15.97L187.59 16.12C187.48 16.47 187.18 17.25 186.71 18.44C186.24 19.64 185.75 20.87 185.25 22.13C184.33 24.43 183.75 25.9 183.51 26.52C183.41 26.79 183.32 26.93 183.24 26.92C183.16 26.92 183.07 26.77 182.97 26.5C182.22 24.51 181.19 21.87 179.89 18.57" fill="#121B0E"/>
<path d="M194.02 26.37C193.49 26.05 193.06 25.6 192.73 25.03C192.41 24.45 192.24 23.79 192.24 23.04C192.24 22.29 192.41 21.54 192.75 20.9C193.09 20.26 193.55 19.75 194.14 19.39C194.72 19.02 195.36 18.84 196.04 18.84C196.63 18.84 197.14 18.96 197.58 19.2C198.02 19.44 198.35 19.75 198.59 20.14C198.83 20.53 198.95 20.96 198.95 21.43C198.95 21.73 198.88 21.92 198.73 22.02C198.58 22.12 198.33 22.17 197.96 22.18L193.19 22.25V21.62L196.78 21.57C196.92 21.57 197.01 21.55 197.05 21.5C197.09 21.45 197.12 21.37 197.12 21.24C197.12 20.68 197 20.25 196.77 19.94C196.54 19.63 196.22 19.47 195.81 19.47C195.3 19.47 194.88 19.72 194.55 20.22C194.22 20.72 194.06 21.42 194.06 22.33C194.06 22.98 194.17 23.54 194.38 24.02C194.6 24.5 194.9 24.87 195.31 25.13C195.71 25.39 196.19 25.52 196.73 25.52C197.14 25.52 197.51 25.46 197.84 25.33C198.17 25.21 198.48 25.01 198.78 24.73C198.86 24.79 198.91 24.86 198.93 24.94C198.95 25.02 198.93 25.1 198.86 25.19C198.47 25.68 198 26.08 197.44 26.38C196.88 26.69 196.31 26.84 195.73 26.84C195.12 26.84 194.54 26.68 194.01 26.36" fill="#121B0E"/>
<path d="M201.37 26.74C200.99 26.68 200.73 26.6 200.59 26.51C200.47 26.42 200.37 26.21 200.29 25.89C200.22 25.57 200.18 25.15 200.18 24.64C200.18 24.41 200.2 24.27 200.24 24.2C200.28 24.13 200.36 24.1 200.47 24.1C200.7 24.81 201.01 25.35 201.41 25.7C201.81 26.05 202.28 26.23 202.84 26.23C203.27 26.23 203.61 26.12 203.86 25.9C204.11 25.68 204.23 25.39 204.23 25.02C204.23 24.65 204.1 24.35 203.84 24.14C203.58 23.93 203.16 23.72 202.58 23.52C202.11 23.34 201.73 23.16 201.42 22.98C201.11 22.8 200.86 22.57 200.66 22.28C200.46 21.99 200.36 21.64 200.36 21.22C200.36 20.8 200.48 20.39 200.73 20.04C200.97 19.68 201.32 19.4 201.78 19.19C202.24 18.98 202.77 18.87 203.37 18.87C203.73 18.87 204.09 18.9 204.43 18.97C204.78 19.04 205.02 19.14 205.15 19.28C205.25 19.37 205.33 19.53 205.37 19.76C205.42 19.99 205.44 20.38 205.44 20.93C205.44 21.04 205.42 21.12 205.39 21.15C205.36 21.18 205.29 21.2 205.19 21.2C204.96 20.61 204.67 20.17 204.3 19.87C203.94 19.58 203.52 19.43 203.06 19.43C202.68 19.43 202.38 19.52 202.14 19.71C201.9 19.9 201.78 20.14 201.78 20.45C201.78 20.8 201.91 21.08 202.18 21.27C202.45 21.47 202.86 21.68 203.43 21.89C203.47 21.91 203.51 21.93 203.53 21.94C204.03 22.13 204.44 22.32 204.76 22.51C205.08 22.7 205.33 22.93 205.51 23.2C205.69 23.47 205.78 23.81 205.78 24.2C205.78 24.69 205.64 25.13 205.36 25.54C205.08 25.94 204.69 26.26 204.19 26.48C203.69 26.71 203.1 26.82 202.44 26.82C202.09 26.82 201.73 26.79 201.35 26.73" fill="#121B0E"/>
<path d="M211.39 30.34C211.39 30.34 211.49 30.27 211.6 30.26C211.91 30.23 212.13 30.18 212.27 30.12C212.41 30.06 212.51 29.97 212.57 29.85C212.63 29.73 212.65 29.54 212.65 29.26V21.43C212.65 20.77 212.5 20.28 212.2 19.97C211.9 19.65 211.49 19.49 210.97 19.49C210.32 19.49 209.82 19.76 209.46 20.3C209.1 20.84 208.92 21.61 208.92 22.61C208.92 23.61 209.11 24.39 209.49 24.94C209.87 25.5 210.38 25.77 211.03 25.77C211.46 25.77 211.84 25.62 212.16 25.33C212.48 25.04 212.64 24.58 212.64 23.95L212.88 25.52C212.4 25.9 211.91 26.2 211.39 26.44C210.87 26.68 210.44 26.8 210.1 26.8C209.57 26.8 209.06 26.66 208.57 26.38C208.09 26.1 207.7 25.69 207.4 25.14C207.1 24.59 206.95 23.93 206.95 23.16C206.95 22.39 207.13 21.62 207.48 20.97C207.83 20.32 208.3 19.8 208.89 19.43C209.48 19.05 210.12 18.87 210.8 18.87C211.09 18.87 211.37 18.9 211.62 18.96C211.88 19.02 212.17 19.11 212.5 19.22C212.62 19.26 212.75 19.31 212.87 19.35C212.99 19.39 213.09 19.41 213.17 19.41C213.26 19.41 213.36 19.39 213.46 19.34C213.56 19.29 213.7 19.22 213.88 19.1C213.89 19.09 213.9 19.08 213.91 19.08C213.92 19.08 213.94 19.07 213.96 19.05C214.08 18.97 214.18 18.92 214.25 18.89C214.32 18.86 214.4 18.85 214.49 18.85V29.32C214.49 29.57 214.52 29.76 214.58 29.89C214.64 30.02 214.73 30.12 214.87 30.18C215.01 30.24 215.21 30.28 215.48 30.31C215.48 30.43 215.46 30.52 215.44 30.56C215.41 30.61 215.34 30.63 215.21 30.63L214.84 30.61C214.46 30.61 214.03 30.61 213.53 30.59C213 30.6 212.51 30.61 212.08 30.61L211.33 30.63C211.33 30.49 211.35 30.4 211.37 30.36" fill="#121B0E"/>
<path d="M217.39 26.29C217.03 25.92 216.85 25.37 216.85 24.65V21.48C216.85 21.2 216.82 20.97 216.77 20.82C216.72 20.67 216.62 20.53 216.5 20.44C216.38 20.34 216.18 20.24 215.9 20.14C215.9 20.07 215.91 20.02 215.94 19.97C215.97 19.93 216.02 19.89 216.08 19.85L218.09 18.97C218.23 18.91 218.33 18.88 218.41 18.86C218.49 18.84 218.59 18.84 218.72 18.84V24.22C218.72 24.75 218.82 25.12 219.01 25.33C219.2 25.54 219.5 25.65 219.89 25.65C220.47 25.65 221.07 25.44 221.68 25.02L221.82 25.26C221.34 25.75 220.85 26.14 220.34 26.43C219.83 26.72 219.31 26.86 218.79 26.86C218.21 26.86 217.74 26.68 217.39 26.31M221.68 26.73L221.46 25.52L221.44 25.33V21.48C221.44 21.2 221.41 20.97 221.35 20.82C221.29 20.66 221.2 20.53 221.07 20.44C220.94 20.34 220.74 20.24 220.48 20.14C220.47 20.07 220.48 20.02 220.51 19.97C220.54 19.93 220.6 19.89 220.69 19.85L222.68 18.97C222.82 18.91 222.92 18.88 223 18.86C223.08 18.84 223.18 18.84 223.29 18.84V24.7C223.29 24.98 223.31 25.2 223.37 25.35C223.42 25.5 223.52 25.6 223.66 25.67C223.8 25.74 224.03 25.79 224.33 25.82C224.33 25.93 224.32 26.01 224.29 26.06C224.26 26.11 224.21 26.13 224.13 26.15L221.78 26.83L221.68 26.74V26.73Z" fill="#121B0E"/>
<path d="M225.15 26.47C225.15 26.47 225.23 26.4 225.3 26.39C225.57 26.33 225.76 26.27 225.88 26.21C225.99 26.15 226.07 26.05 226.12 25.9C226.17 25.76 226.19 25.53 226.19 25.21V21.5C226.19 21.21 226.16 20.98 226.1 20.83C226.04 20.68 225.95 20.55 225.81 20.45C225.67 20.35 225.46 20.25 225.18 20.16C225.18 20.08 225.19 20.02 225.22 19.97C225.25 19.93 225.3 19.88 225.36 19.85L227.45 18.96C227.57 18.9 227.68 18.87 227.77 18.85C227.86 18.83 227.96 18.82 228.08 18.82C228.06 19.32 228.05 19.76 228.05 20.15V25.21C228.05 25.55 228.07 25.79 228.12 25.94C228.17 26.09 228.26 26.19 228.39 26.25C228.53 26.31 228.76 26.35 229.09 26.37C229.1 26.49 229.09 26.58 229.06 26.62C229.03 26.67 228.96 26.69 228.85 26.69L228.29 26.67C227.89 26.67 227.49 26.67 227.08 26.65L225.96 26.67C225.75 26.68 225.47 26.69 225.11 26.69C225.11 26.59 225.12 26.51 225.15 26.47ZM226.18 16.52C226 16.32 225.91 16.08 225.91 15.8C225.91 15.48 226.03 15.21 226.28 14.99C226.52 14.77 226.82 14.65 227.16 14.62C227.43 14.64 227.66 14.74 227.85 14.93C228.04 15.11 228.13 15.35 228.13 15.64C228.13 15.96 228.01 16.23 227.76 16.46C227.52 16.69 227.22 16.81 226.87 16.84C226.6 16.83 226.37 16.72 226.19 16.52" fill="#121B0E"/>
<path d="M231.13 26.57C230.88 26.36 230.75 26.01 230.75 25.51V19.01H234.84L234.89 19.11L234.74 19.45C234.69 19.57 234.64 19.66 234.57 19.71C234.5 19.75 234.42 19.78 234.33 19.78H229.75C229.75 19.78 229.67 19.78 229.64 19.76C229.61 19.75 229.6 19.73 229.6 19.71C229.6 19.67 229.62 19.62 229.65 19.58C229.68 19.54 229.74 19.49 229.82 19.42L229.9 19.33L231.74 17.7C231.94 17.52 232.1 17.4 232.22 17.34C232.33 17.28 232.47 17.26 232.63 17.26V25.04C232.63 25.35 232.69 25.56 232.81 25.69C232.93 25.81 233.13 25.88 233.41 25.88C233.66 25.88 233.89 25.85 234.09 25.79C234.3 25.73 234.49 25.66 234.67 25.57C234.73 25.55 234.78 25.52 234.82 25.5C234.84 25.52 234.86 25.54 234.87 25.57C234.88 25.59 234.89 25.63 234.89 25.67C234.89 25.71 234.88 25.75 234.86 25.78C234.84 25.81 234.81 25.84 234.77 25.87L234.69 25.94C234.38 26.19 234 26.41 233.53 26.61C233.06 26.8 232.6 26.9 232.15 26.9C231.7 26.9 231.38 26.8 231.13 26.58" fill="#121B0E"/>
<path d="M236.87 26.62C236.58 26.46 236.34 26.22 236.16 25.92C235.98 25.62 235.89 25.28 235.89 24.89C235.89 24.5 235.99 24.19 236.2 23.95C236.41 23.71 236.77 23.47 237.29 23.22L239.54 22.04C239.71 21.95 239.84 21.86 239.92 21.78C240 21.7 240.05 21.61 240.07 21.51C240.09 21.41 240.1 21.27 240.1 21.08C240.1 20.63 239.99 20.31 239.78 20.13C239.57 19.95 239.2 19.86 238.68 19.86C238.28 19.86 237.88 19.92 237.47 20.04C237.06 20.16 236.66 20.32 236.26 20.53C236.17 20.35 236.15 20.21 236.19 20.11C236.24 20.01 236.37 19.9 236.6 19.78C237.08 19.5 237.58 19.27 238.12 19.09C238.66 18.91 239.2 18.83 239.73 18.83C240.43 18.83 240.97 18.99 241.36 19.31C241.74 19.63 241.93 20.1 241.93 20.74V25.15C241.93 25.39 241.95 25.55 242 25.63C242.05 25.71 242.13 25.75 242.26 25.75C242.44 25.75 242.71 25.67 243.06 25.51C243.08 25.57 243.09 25.63 243.09 25.7C243.09 25.75 243.07 25.79 243.02 25.85C242.97 25.9 242.9 25.95 242.8 26.01C242.47 26.25 242.11 26.45 241.71 26.62C241.31 26.79 241.01 26.88 240.79 26.88C240.59 26.88 240.43 26.74 240.31 26.45C240.2 26.16 240.12 25.77 240.09 25.28H240.06C239.53 25.88 239.09 26.3 238.76 26.53C238.42 26.76 238.1 26.88 237.8 26.88C237.5 26.88 237.18 26.8 236.88 26.63M239.32 25.36C239.53 25.2 239.72 24.98 239.86 24.72C240.01 24.46 240.08 24.2 240.08 23.94V22.32L238.67 23.03C238.29 23.23 238.03 23.43 237.89 23.61C237.74 23.79 237.67 24.03 237.67 24.34C237.67 24.7 237.77 25 237.97 25.24C238.17 25.48 238.4 25.6 238.68 25.6C238.9 25.6 239.11 25.52 239.33 25.35" fill="#121B0E"/>
<path d="M96.28 36.45C95.85 37.56 94.97 38.06 94.11 38.06C92.93 38.06 91.76 37.12 91.76 35.51C91.76 33.68 92.94 32.88 93.99 32.77C95.59 32.62 96.14 34.07 96.14 34.07L95.26 34.48C95.71 33.99 95.49 32.88 94.03 32.88C93.35 32.88 92.37 33.73 92.37 35.39C92.37 36.88 93.39 37.7 94.41 37.7C95.13 37.7 95.84 37.3 96.19 36.46H96.27L96.28 36.45Z" fill="#121B0E"/>
<path d="M102.75 35.44C102.75 36.9 101.58 38.09 100.14 38.09C98.7 38.09 97.52 36.9 97.52 35.44C97.52 33.98 98.69 32.79 100.14 32.79C101.59 32.79 102.75 33.98 102.75 35.44ZM102.12 35.43C102.12 34 101.24 32.85 100.14 32.85C99.04 32.85 98.17 34 98.17 35.43C98.17 36.86 99.05 38 100.14 38C101.23 38 102.12 36.85 102.12 35.43Z" fill="#121B0E"/>
<path d="M107.52 33.61V37.99H107.43L104.48 33.65V37.16C104.48 37.76 104.55 37.93 104.77 37.99H104.1C104.33 37.92 104.4 37.76 104.4 37.16V33.73C104.4 33.27 104.07 32.87 104.07 32.87H104.74L107.41 36.81V33.62C107.41 33.13 107.26 32.92 107.06 32.87H107.82C107.62 32.93 107.53 33.1 107.53 33.61" fill="#121B0E"/>
<path d="M112.62 36.59C112.62 37.5 111.76 38.06 110.89 38.06C109.79 38.06 109.24 37.44 109.03 37.05L109.81 36.72C109.56 37.2 109.81 37.99 110.9 37.99C111.6 37.99 112.14 37.55 112.14 36.96C112.14 36.23 111.24 35.89 110.63 35.64C109.77 35.3 109.22 34.99 109.22 34.22C109.22 33.36 109.94 32.76 110.82 32.76C111.35 32.76 112.09 33.02 112.5 33.75L111.67 34.04C111.99 33.54 111.57 32.85 110.76 32.85C110.2 32.85 109.66 33.28 109.66 33.9C109.66 34.59 110.41 34.86 111.04 35.13C111.85 35.45 112.61 35.77 112.61 36.59" fill="#121B0E"/>
<path d="M117.67 32.88H118.37C118.16 32.95 118.08 33.15 118.08 33.66V36.05C118.08 37.51 117.27 38.07 116.25 38.07C115.23 38.07 114.18 37.58 114.18 36.11V33.73C114.18 33.13 114.11 32.95 113.89 32.89H115.07C114.86 32.96 114.78 33.14 114.78 33.72V36.08C114.78 37.44 115.53 37.93 116.48 37.93C117.1 37.93 117.94 37.51 117.94 36.08V33.65C117.94 33.16 117.85 32.96 117.65 32.9L117.67 32.88Z" fill="#121B0E"/>
<path d="M123.14 37.99H119.66C119.88 37.93 119.95 37.61 119.95 37.16V33.71C119.95 33.11 119.88 32.93 119.66 32.87H120.84C120.63 32.94 120.55 33.12 120.55 33.69V37.92H121.62C122.82 37.92 123.14 36.83 123.14 36.83V38V37.99Z" fill="#121B0E"/>
<path d="M127.33 32.88V33.82C127.33 33.82 126.99 32.99 125.81 32.99H125.67V37.16C125.67 37.76 125.74 37.94 125.96 38H124.78C124.99 37.93 125.07 37.75 125.07 37.18V32.99H124.93C123.81 32.99 123.42 33.82 123.42 33.82V32.88H127.33Z" fill="#121B0E"/>
<path d="M133.59 35.44C133.59 36.9 132.42 38.09 130.98 38.09C129.54 38.09 128.36 36.9 128.36 35.44C128.36 33.98 129.53 32.79 130.98 32.79C132.43 32.79 133.59 33.98 133.59 35.44ZM132.96 35.43C132.96 34 132.08 32.85 130.98 32.85C129.88 32.85 129.01 34 129.01 35.43C129.01 36.86 129.89 38 130.98 38C132.07 38 132.96 36.85 132.96 35.43Z" fill="#121B0E"/>
<path d="M139.13 37.99H138.74C138.37 37.99 138.15 37.8 137.96 37.49C137.69 37.07 137.31 36.49 137.13 36.21C136.92 35.89 136.73 35.7 136.44 35.65H135.82V37.15C135.82 37.75 135.89 37.92 136.11 37.98H134.92C135.14 37.91 135.22 37.73 135.22 37.13V33.46C135.22 33.04 134.92 32.86 134.92 32.86H136.79C138.15 32.86 138.6 33.56 138.6 34.32C138.6 35.08 138.03 35.56 137.19 35.64C137.39 35.71 137.58 35.83 137.75 36.04C137.88 36.21 138.43 37.08 138.6 37.36C138.97 37.99 139.14 37.99 139.14 37.99M137.99 34.26C137.99 33.7 137.76 32.97 136.79 32.97H135.83V35.55H136.58C137.68 35.55 138 34.81 138 34.26" fill="#121B0E"/>
<path d="M141.41 37.99H140.23C140.45 37.93 140.52 37.75 140.52 37.16V33.59C140.52 33.1 140.43 32.94 140.23 32.88H141.41C141.2 32.94 141.12 33.11 141.12 33.62V37.16C141.12 37.76 141.19 37.93 141.41 37.99Z" fill="#121B0E"/>
<path d="M146.09 37.99C146.32 37.7 146.13 37.25 145.94 36.8C145.89 36.68 145.81 36.5 145.71 36.28H143.54C143.32 36.79 143.16 37.2 143.14 37.25C142.99 37.65 143.04 37.89 143.28 37.99H142.45C142.7 37.87 142.86 37.77 143.07 37.22C143.24 36.77 144.84 32.85 144.84 32.85H145C145 32.85 146.33 35.98 146.68 36.8C146.94 37.4 147.1 37.69 147.48 37.99H146.1H146.09ZM145.67 36.19C145.26 35.23 144.59 33.7 144.59 33.7L143.58 36.19H145.68H145.67Z" fill="#121B0E"/>
<path d="M155.9 37.07V37.99H152.24C152.46 37.93 152.53 37.77 152.53 37.21V33.76C152.53 33.12 152.46 32.94 152.24 32.87H155.72V33.79C155.72 33.79 155.46 32.98 154.21 32.98H153.14V35.2H154.85V35.3H153.14V37.92H154.42C155.69 37.92 155.91 37.07 155.91 37.07" fill="#121B0E"/>
<path d="M161.61 35.32C161.61 37.02 160.58 38 158.97 38H157.16C157.38 37.93 157.45 37.64 157.45 37.17V33.71C157.45 33.27 157.43 33.02 157.16 32.88C157.16 32.88 158.43 32.88 158.8 32.88C160.81 32.88 161.61 34.13 161.61 35.32ZM160.95 35.43C160.95 33.97 160.15 33.01 158.96 33.01H158.05V37.91H158.95C160.23 37.91 160.94 36.96 160.94 35.43" fill="#121B0E"/>
<path d="M166.68 32.88H167.38C167.17 32.95 167.09 33.15 167.09 33.66V36.05C167.09 37.51 166.28 38.07 165.26 38.07C164.24 38.07 163.19 37.58 163.19 36.11V33.73C163.19 33.13 163.12 32.95 162.9 32.89H164.08C163.87 32.96 163.79 33.14 163.79 33.72V36.08C163.79 37.44 164.54 37.93 165.49 37.93C166.11 37.93 166.95 37.51 166.95 36.08V33.65C166.95 33.16 166.86 32.96 166.66 32.9L166.68 32.88Z" fill="#121B0E"/>
<path d="M173.19 36.45C172.76 37.56 171.88 38.06 171.02 38.06C169.84 38.06 168.67 37.12 168.67 35.51C168.67 33.68 169.85 32.88 170.9 32.77C172.5 32.62 173.05 34.07 173.05 34.07L172.17 34.48C172.62 33.99 172.4 32.88 170.94 32.88C170.26 32.88 169.28 33.73 169.28 35.39C169.28 36.88 170.3 37.7 171.32 37.7C172.04 37.7 172.75 37.3 173.1 36.46H173.18L173.19 36.45Z" fill="#121B0E"/>
<path d="M177.53 37.99C177.76 37.7 177.57 37.25 177.38 36.8C177.33 36.68 177.25 36.5 177.15 36.28H174.98C174.76 36.79 174.6 37.2 174.58 37.25C174.43 37.65 174.48 37.89 174.72 37.99H173.89C174.14 37.87 174.3 37.77 174.51 37.22C174.68 36.77 176.28 32.85 176.28 32.85H176.44C176.44 32.85 177.77 35.98 178.11 36.8C178.37 37.4 178.53 37.69 178.91 37.99H177.52H177.53ZM177.11 36.19C176.7 35.23 176.03 33.7 176.03 33.7L175.02 36.19H177.12H177.11Z" fill="#121B0E"/>
<path d="M184.04 36.45C183.61 37.56 182.73 38.06 181.87 38.06C180.69 38.06 179.52 37.12 179.52 35.51C179.52 33.68 180.7 32.88 181.75 32.77C183.35 32.62 183.9 34.07 183.9 34.07L183.02 34.48C183.47 33.99 183.25 32.88 181.79 32.88C181.11 32.88 180.13 33.73 180.13 35.39C180.13 36.88 181.15 37.7 182.17 37.7C182.89 37.7 183.6 37.3 183.95 36.46H184.03L184.04 36.45Z" fill="#121B0E"/>
<path d="M186.46 37.99H185.28C185.5 37.93 185.57 37.75 185.57 37.16V33.59C185.57 33.1 185.48 32.94 185.28 32.88H186.46C186.25 32.94 186.17 33.11 186.17 33.62V37.16C186.17 37.76 186.24 37.93 186.46 37.99Z" fill="#121B0E"/>
<path d="M192.98 35.44C192.98 36.9 191.81 38.09 190.37 38.09C188.93 38.09 187.75 36.9 187.75 35.44C187.75 33.98 188.92 32.79 190.37 32.79C191.82 32.79 192.98 33.98 192.98 35.44ZM192.35 35.43C192.35 34 191.47 32.85 190.37 32.85C189.27 32.85 188.4 34 188.4 35.43C188.4 36.86 189.28 38 190.37 38C191.46 38 192.35 36.85 192.35 35.43Z" fill="#121B0E"/>
<path d="M197.75 33.61V37.99H197.66L194.71 33.65V37.16C194.71 37.76 194.78 37.93 195 37.99H194.33C194.56 37.92 194.63 37.76 194.63 37.16V33.73C194.63 33.27 194.3 32.87 194.3 32.87H194.97L197.64 36.81V33.62C197.64 33.13 197.5 32.92 197.29 32.87H198.05C197.85 32.93 197.76 33.1 197.76 33.61" fill="#121B0E"/>
<path d="M202.72 37.99C202.95 37.7 202.76 37.25 202.57 36.8C202.52 36.68 202.44 36.5 202.34 36.28H200.17C199.95 36.79 199.79 37.2 199.77 37.25C199.62 37.65 199.67 37.89 199.91 37.99H199.08C199.33 37.87 199.49 37.77 199.7 37.22C199.87 36.77 201.47 32.85 201.47 32.85H201.63C201.63 32.85 202.96 35.98 203.3 36.8C203.56 37.4 203.72 37.69 204.1 37.99H202.71H202.72ZM202.3 36.19C201.89 35.23 201.22 33.7 201.22 33.7L200.21 36.19H202.31H202.3Z" fill="#121B0E"/>
<path d="M208.7 37.99H205.22C205.44 37.93 205.51 37.61 205.51 37.16V33.71C205.51 33.11 205.44 32.93 205.22 32.87H206.4C206.19 32.94 206.11 33.12 206.11 33.69V37.92H207.18C208.38 37.92 208.7 36.83 208.7 36.83V38V37.99Z" fill="#121B0E"/>
<path d="M45.35 28.41C42.36 40.75 29.94 48.34 17.59 45.35C5.25 42.36 -2.34 29.94 0.649998 17.59C3.64 5.25001 16.06 -2.33999 28.41 0.650006C40.75 3.64001 48.34 16.06 45.35 28.41ZM21.82 5.67001C22.41 8.17001 23.82 10.52 25.69 12.28C26.27 7.89001 28.86 4.19001 33.5 4.45001C27.11 0.850006 19.38 0.770006 12.93 4.27001C15.99 5.07001 18.87 6.41001 21.51 8.32001L21.27 5.60001L21.56 5.36001C21.62 5.31001 21.81 5.58001 21.84 5.67001M34.07 17.81C34.09 17.67 34.45 17.42 34.57 17.49C34.68 17.56 34.8 17.76 34.9 17.95L34.81 20.04C37.61 18.38 40.87 18.13 43.97 19.34C43.07 14.36 40.61 10.02 36.83 6.81001C34.88 5.15001 32.04 5.01001 30 6.54001C29.07 7.24001 28.47 8.19001 28.06 9.25001C27.16 11.57 27.07 14.06 28.03 16.36C29.13 19.03 29.86 21.72 30.37 24.61L31.7 22.9C32.84 21.42 33.77 19.68 34.07 17.81ZM26.86 21.58C26.29 17.26 23.74 11.93 20.29 9.45001C18.89 8.44001 17.44 7.60001 15.86 6.91001C12.65 5.51001 9.06 6.47001 6.85 9.13001C4.18 12.34 2.4 16.07 1.92 20.36C3.5 17.21 6.37 15.17 9.98 14.69C8.66 13.96 7.2 13.37 6.53 11.88C8.44 13.36 10.39 14.23 12.69 14.54C18.37 14.86 23.26 17.09 26.86 21.59M33.31 38.29C34.13 39.16 35.96 39.79 36.99 38.93C41.99 34.74 44.6 28.27 44.21 21.84C44.15 20.79 43.42 20.12 42.48 19.91C36.52 18.62 31.76 23.88 31.24 29.65C31.4 29.23 33.38 26.99 33.62 27.37L33.79 27.64C30.63 30.32 30.58 35.41 33.3 38.29M21.87 19.24C20.57 18.4 19.31 17.79 17.87 17.59C15.16 17.2 12.74 18.5 11.51 20.94C10.08 23.8 11.61 25.99 10.39 25.47C9.46 22.05 10.72 17.85 14.28 16.49C12.02 16.15 9.71 16.39 7.47 17.28C3.79 18.74 1.43 22.46 2.05 26.49C2.8 31.39 5.35 35.92 9.17 39.1C10.92 40.56 13.16 41.27 15.34 41.59C19.38 42.17 23.01 40.2 25 36.75C26.05 34.93 26.51 33.05 26.88 30.97C27.69 26.36 25.87 21.82 21.87 19.24Z" fill="#121B0E"/>
<path d="M30.86 22.15C30.02 21.2 29.51 19.63 29.93 18.31C30.35 16.97 31.54 16.16 32.77 15.48C34.03 17.82 33.45 20.77 30.86 22.15Z" fill="#121B0E"/>
<path d="M29.6 16.76C28.98 16.06 28.52 15.12 28.62 14.2C28.74 13.06 29.65 12.22 30.59 11.71C31.68 13.47 31.37 15.59 29.6 16.76Z" fill="#121B0E"/>
<path d="M35.6 18.78C35.33 17.99 35.4 16.96 35.9 16.23C36.47 15.39 37.49 15.12 38.51 15.07C38.66 16.89 37.6 18.56 35.6 18.78Z" fill="#121B0E"/>
<path d="M33.92 16.22C33.48 15.42 33.32 14.46 33.69 13.67C34.09 12.82 34.97 12.31 35.87 12.09C36.43 13.8 35.74 15.61 33.93 16.22" fill="#121B0E"/>
<path d="M32.43 12.97C32 12.22 31.8 11.21 32.2 10.41C32.59 9.63001 33.41 9.19001 34.27 8.87001C34.93 10.45 34.24 12.33 32.44 12.98" fill="#121B0E"/>
<path d="M28.86 11.88C28.4 11.07 28.36 10.23 28.55 9.4C29.05 8.61 29.78 8.09 30.73 7.8C31.32 9.47 30.63 11.25 28.85 11.88" fill="#121B0E"/>
<path d="M43.04 17.24C41.77 18.37 40.05 18.5 38.56 17.71C39 16.87 39.71 16.11 40.67 16.04C41.62 15.97 42.45 16.59 43.04 17.24Z" fill="#121B0E"/>
<path d="M36.77 14.41C36.52 13.67 36.72 12.68 37.3 12.09C37.95 11.44 38.91 11.28 39.79 11.32C39.76 12.97 38.59 14.37 36.77 14.41Z" fill="#121B0E"/>
<path d="M32.52 8.41001C32.25 7.83001 32.55 7.06001 33.07 6.68001C33.46 6.39001 34.14 6.24001 34.7 6.36001C34.66 7.55001 33.73 8.40001 32.51 8.41001" fill="#121B0E"/>
<path d="M37.67 8.66C37.43 9.93 36.61 10.58 35.54 10.58C35.43 9.92 35.57 9.27 36.08 8.85C36.45 8.56 37.25 8.27 37.66 8.66" fill="#121B0E"/>
<path d="M41.53 14.06C41.21 15.15 40.37 15.82 39.22 15.65C39.24 15.06 39.45 14.44 39.94 14.16C40.36 13.92 40.99 13.9 41.53 14.06Z" fill="#121B0E"/>
<path d="M31.87 8.17C31.22 7.76 30.92 6.9 31.43 6.28C31.7 6.41 32.05 6.75 32.16 7C32.29 7.3 32.13 7.94 31.87 8.18" fill="#121B0E"/>
<path d="M24.72 16.98C22.02 17.56 19.86 15.75 19.22 13.13C20.51 12.84 21.91 12.77 23.04 13.51C24.15 14.24 24.6 15.63 24.72 16.98Z" fill="#121B0E"/>
<path d="M18.62 14.61C16.52 15.48 14.36 14.22 13.65 12.21C14.75 11.85 15.81 11.6 16.8 12.04C17.8 12.49 18.37 13.54 18.62 14.61Z" fill="#121B0E"/>
<path d="M21.26 11.94C19.11 12.84 16.99 11.55 16.29 9.56001C17.35 9.19001 18.42 8.93001 19.42 9.38001C20.41 9.82001 20.97 10.87 21.26 11.95" fill="#121B0E"/>
<path d="M15.91 10.92C14.21 11.66 12.33 10.63 11.79 8.94001C12.67 8.65001 13.53 8.45001 14.3 8.77001C15.16 9.12001 15.66 9.94001 15.9 10.93" fill="#121B0E"/>
<path d="M13.26 13.64C11.78 14.51 10.19 13.61 8.93 12.58C9.5 12.14 10.11 11.82 10.83 11.74C12 11.62 13.12 12.46 13.25 13.64" fill="#121B0E"/>
<path d="M7.87 14.58C6.97 15.78 5.4 15.95 4.14 15.17C4.52 14.54 5.07 13.9 5.78 13.73C6.54 13.55 7.31 14.02 7.87 14.59" fill="#121B0E"/>
<path d="M10.74 10.63C9.48 11.38 8.08 10.81 7.43 9.61001C8.04 9.27001 8.7 9.06001 9.28 9.18001C9.92 9.32001 10.4 9.87001 10.74 10.63Z" fill="#121B0E"/>
<path d="M16.93 8.21001C15.83 8.94001 14.57 8.72001 13.81 7.68001C14.31 7.27001 14.96 6.99001 15.49 7.05001C16.11 7.12001 16.61 7.60001 16.94 8.22001" fill="#121B0E"/>
<path d="M12.48 7.67001C11.74 8.45001 10.65 8.55001 9.78 7.73001C10.09 7.36001 10.6 7.02001 11 6.96001C11.56 6.87001 12.1 7.22001 12.48 7.67001Z" fill="#121B0E"/>
<path d="M25.2 10.91C24.38 10.34 23.66 9.45 23.66 8.42C23.66 7.44 24.22 6.58 24.95 5.83C26.37 7.17 26.66 9.35 25.2 10.9" fill="#121B0E"/>
<path d="M23.4 7.23001C22.73 6.94001 22.29 6.16001 22.3 5.41001C22.31 4.67001 22.82 4.01001 23.41 3.49001C24.42 4.53001 24.45 6.07001 23.4 7.23001Z" fill="#121B0E"/>
<path d="M26.57 7.52001C26.21 7.01001 25.89 6.24001 26.04 5.59001C26.22 4.83001 26.9 4.30001 27.56 3.98001C28.23 5.24001 27.92 6.74001 26.57 7.53001" fill="#121B0E"/>
<path d="M20.93 6.98C20.14 7.02 19.43 6.75 19.02 6.1C18.72 5.63 18.65 4.85 18.8 4.19C20.2 4.4 21.08 5.55 20.93 6.98Z" fill="#121B0E"/>
<path d="M25.62 5.34C25.08 5.23 24.71 4.47 24.66 4.02C24.59 3.33 24.95 2.74 25.53 2.28C26.34 3.09 26.52 4.44 25.62 5.34Z" fill="#121B0E"/>
<path d="M18.14 5.16001C16.63 5.51001 15.93 5.16001 15.39 3.71001C16.59 3.28001 17.85 3.91001 18.14 5.16001Z" fill="#121B0E"/>
<path d="M21.71 4.79001C21.21 5.02001 20.57 4.48001 20.36 4.13001C20.03 3.57001 20.08 2.83001 20.44 2.26001C21.4 2.64001 22.06 3.67001 21.71 4.78001" fill="#121B0E"/>
<path d="M30.05 3.38001C30.12 4.39001 29.27 5.34001 28.37 5.26001C28.14 4.83001 28.35 4.04001 28.68 3.66001C28.93 3.37001 29.67 3.05001 30.05 3.38001Z" fill="#121B0E"/>
</g>
<defs>
<clipPath id="clip0_131_82">
<rect width="243.09" height="46" fill="white"/>
</clipPath>
</defs>
</svg>
